<?xml version="1.0" standalone="no"?>
<!DOCTYPE svg PUBLIC "-//W3C//DTD SVG 20010904//EN"
 "http://www.w3.org/TR/2001/REC-SVG-20010904/DTD/svg10.dtd">
<svg version="1.0" xmlns="http://www.w3.org/2000/svg"
 width="12217.000000pt" height="2443.000000pt" viewBox="0 0 12217.000000 2443.000000"
 preserveAspectRatio="xMidYMid meet">

<g transform="translate(0.000000,2443.000000) scale(0.100000,-0.100000)"
fill="#000000" stroke="none">
<path d="M75700 23143 c-574 -29 -1005 -78 -1428 -162 -708 -141 -1279 -348
-1828 -662 -630 -361 -1163 -819 -1591 -1366 -102 -131 -307 -437 -394 -588
-270 -472 -479 -1009 -593 -1520 -95 -429 -130 -760 -130 -1225 0 -507 47
-898 166 -1374 268 -1075 804 -1918 1566 -2465 605 -433 1499 -749 2547 -900
963 -139 1881 -158 3155 -66 914 67 1486 136 2315 280 392 68 365 61 365 98 0
134 40 1127 70 1757 68 1405 141 2593 211 3448 18 210 30 384 28 386 -2 1
-395 -1 -874 -6 -482 -5 -1410 -6 -2080 -1 -665 4 -1250 8 -1300 8 l-90 0 -6
-375 c-6 -339 -19 -603 -64 -1365 -8 -137 -15 -270 -15 -294 l0 -44 378 8
c251 4 474 3 667 -5 160 -7 291 -14 293 -15 3 -3 -78 -1588 -81 -1592 -1 0
-85 -19 -187 -42 -1011 -222 -1828 -192 -2513 93 -506 210 -860 524 -1078 959
-141 280 -226 564 -275 922 -26 185 -26 680 -1 885 143 1161 683 2013 1609
2540 622 354 1517 541 2394 501 446 -21 815 -62 1274 -142 481 -83 813 -169
1405 -363 126 -41 230 -74 232 -73 1 2 -7 131 -17 287 -37 560 -70 1308 -70
1615 0 94 -3 240 -7 326 l-6 156 -146 27 c-1054 199 -1915 305 -2806 346 -193
9 -945 11 -1095 3z"/>
<path d="M90330 23000 c-256 -5 -699 -16 -985 -24 -1248 -38 -2331 -44 -3255
-20 l-245 7 0 -894 c-1 -492 -6 -1101 -13 -1354 -82 -3047 -157 -4840 -252
-6090 -34 -435 -132 -1558 -144 -1643 l-5 -34 2472 5 c1463 3 2607 9 2802 15
1302 43 1593 71 1993 186 357 103 750 293 1002 484 102 77 276 248 365 357
200 247 375 586 470 911 135 463 156 1013 55 1462 -133 596 -469 1077 -969
1386 -250 155 -506 247 -866 311 -55 10 -103 21 -107 25 -5 3 43 21 105 39
377 110 649 244 905 444 485 379 776 920 879 1632 24 169 24 591 0 765 -90
638 -373 1174 -782 1479 -122 91 -198 137 -351 214 -399 199 -833 296 -1464
327 -308 14 -1086 19 -1610 10z m195 -1990 c390 -39 608 -117 770 -275 181
-177 265 -461 224 -762 -34 -252 -126 -442 -292 -600 -138 -131 -297 -203
-569 -257 -227 -46 -283 -49 -1141 -53 l-819 -5 6 79 c4 43 25 481 47 973 22
492 42 901 45 909 4 11 132 13 812 8 472 -3 853 -10 917 -17z m30 -3951 c406
-27 631 -107 816 -289 179 -176 250 -368 250 -670 0 -331 -94 -592 -285 -788
-131 -136 -317 -229 -582 -291 -221 -51 -272 -54 -1280 -58 l-941 -4 4 73 c8
157 83 1943 83 1989 l0 49 888 0 c519 0 954 -4 1047 -11z"/>
<path d="M105505 22999 c-236 -4 -560 -12 -720 -18 -159 -6 -429 -16 -600 -23
-367 -13 -1505 -16 -2102 -5 l-423 8 0 -443 c0 -870 -34 -2571 -75 -3813 -70
-2074 -163 -3490 -351 -5288 -24 -235 -44 -435 -44 -445 0 -16 81 -17 1559
-17 l1559 0 6 50 c3 28 6 169 6 315 1 964 69 3535 140 5275 36 854 107 2254
116 2264 10 10 640 25 1114 25 517 1 618 -4 865 -40 371 -54 648 -184 810
-381 71 -87 149 -243 177 -358 28 -118 31 -337 5 -468 -44 -220 -150 -434
-305 -613 -235 -274 -650 -451 -1207 -515 -238 -28 -695 -9 -990 40 -58 9
-105 14 -105 10 0 -4 219 -607 486 -1341 795 -2179 815 -2238 1120 -3258 129
-432 251 -834 269 -895 l35 -110 1678 0 1679 0 -40 95 c-107 257 -246 568
-739 1645 -295 644 -580 1271 -633 1395 -114 265 -525 1265 -525 1279 0 5 11
12 25 15 53 13 459 192 640 281 506 250 836 508 1104 865 300 398 470 836 538
1384 23 187 23 606 -1 781 -68 505 -238 919 -510 1243 -303 360 -690 614
-1211 794 -486 169 -1066 241 -2155 268 -438 11 -543 11 -1195 -1z"/>
<path d="M116310 22999 c-447 -7 -602 -11 -1485 -41 -409 -13 -1707 -17 -2241
-5 l-371 8 -6 -818 c-6 -796 -10 -973 -42 -1958 -55 -1684 -157 -3933 -220
-4870 -35 -507 -113 -1439 -174 -2070 -15 -159 -26 -292 -25 -294 2 -2 254 2
561 8 425 9 976 9 2308 -1 1822 -12 2153 -9 2677 28 545 38 999 96 1361 175
878 192 1743 736 2333 1469 640 795 1059 1948 1159 3189 64 806 -4 1538 -210
2251 -367 1271 -1116 2134 -2235 2578 -407 161 -778 244 -1360 301 -292 29
-470 40 -845 51 -359 11 -470 10 -1185 -1z m-2805 -539 c2926 -504 4633 -1559
4969 -3070 44 -198 59 -347 59 -570 0 -211 -9 -321 -44 -520 -78 -447 -284
-975 -525 -1347 -37 -57 -49 -83 -39 -83 9 0 923 180 2033 401 1109 220 2028
402 2042 405 14 2 0 -8 -30 -23 -80 -38 -9198 -4243 -9240 -4260 -50 -21 -35
-10 160 122 311 209 673 488 939 723 246 218 587 571 777 807 511 633 839
1320 968 2025 52 286 61 393 61 745 0 353 -9 468 -61 765 -210 1215 -955 2541
-2071 3686 -59 61 -139 138 -176 172 -37 34 -64 62 -60 62 4 0 112 -18 238
-40z"/>
<path d="M25227 22220 c-8 -846 -20 -1345 -67 -2780 -54 -1624 -106 -2822
-166 -3810 -43 -716 -92 -1307 -189 -2281 -19 -190 -35 -357 -35 -370 l0 -24
1644 0 1644 0 7 695 c9 825 76 3225 90 3238 14 13 817 32 1635 39 633 5 1168
-1 1994 -26 178 -5 220 -4 224 7 3 8 -16 80 -41 160 -179 569 -297 1310 -297
1865 l0 130 -127 -6 c-294 -15 -2081 -18 -2675 -5 -329 8 -599 16 -601 18 -5
7 62 1703 68 1709 3 2 797 5 1764 5 l1759 1 37 140 c215 803 577 1486 1025
1935 l95 95 -3891 0 -3891 0 -6 -735z"/>
<path d="M34452 22205 c-13 -755 -19 -1009 -47 -1825 -87 -2540 -245 -4832
-498 -7215 l-22 -210 3907 0 c3467 0 3908 2 3908 15 0 8 36 503 80 1100 43
596 77 1086 75 1088 -2 2 -124 -1 -272 -7 -842 -35 -2285 -48 -3423 -31 -470
6 -858 15 -861 18 -31 37 185 4242 331 6452 50 745 90 1357 90 1360 0 3 -733
5 -1628 5 l-1628 0 -12 -750z"/>
<path d="M41891 22800 c48 -85 803 -1430 1678 -2989 l1591 -2835 0 -115 c0
-532 -140 -2598 -245 -3621 -14 -135 -27 -254 -30 -265 -4 -20 1 -20 1604 -20
l1608 0 7 310 c15 714 44 1497 92 2525 48 1033 40 940 93 1030 176 298 582
904 2482 3705 889 1309 1623 2391 1632 2405 l16 25 -1722 -1 -1722 -1 -63
-114 c-111 -198 -309 -534 -495 -839 -501 -819 -806 -1337 -1278 -2162 -134
-236 -247 -428 -251 -428 -4 0 -10 10 -14 23 -16 52 -180 442 -287 682 -144
324 -315 689 -580 1230 -291 597 -500 1053 -672 1470 l-57 140 -1737 0 -1737
0 87 -155z"/>
<path d="M52902 22045 c0 -889 -7 -1325 -37 -2260 -53 -1630 -167 -3751 -325
-6030 -17 -236 -35 -500 -40 -585 -6 -85 -12 -168 -14 -185 l-4 -30 1654 0
1654 0 0 305 c0 563 24 1980 50 2950 61 2290 186 4709 335 6493 8 98 15 195
15 215 l0 37 -1644 0 -1645 0 1 -910z"/>
<path d="M58110 22375 c0 -939 -49 -2094 -226 -5305 l-144 -2635 -70 -725
c-38 -399 -70 -732 -70 -740 0 -13 167 -15 1445 -15 795 0 1445 0 1445 0 1 0
18 675 40 1500 35 1322 48 1695 115 3145 41 905 75 1668 75 1695 1 45 2 48 15
31 8 -10 51 -91 96 -180 191 -376 459 -870 882 -1626 267 -478 556 -976 1300
-2240 724 -1230 927 -1585 1211 -2120 l109 -205 1847 0 1848 0 6 180 c3 99 13
475 22 835 14 594 30 940 179 3700 162 3000 166 3061 250 4110 47 586 87 1090
91 1120 l5 55 -1439 0 -1439 0 -7 -390 c-24 -1412 -138 -4253 -233 -5831 -9
-156 -20 -284 -23 -284 -4 0 -98 178 -211 396 -112 218 -910 1681 -1774 3252
l-1570 2855 -1888 1 -1887 1 0 -580z"/>
<path d="M96513 22414 c19 -1745 -78 -4273 -288 -7539 -43 -656 -123 -1837
-128 -1885 l-4 -35 1652 0 1652 0 7 695 c18 1864 67 3582 156 5525 48 1036
111 2034 203 3240 l42 540 -1649 0 -1649 0 6 -541z"/>
<path d="M11663 22883 c54 -2 139 -2 190 0 51 1 7 3 -98 3 -104 0 -146 -2 -92
-3z"/>
<path d="M12073 22873 c15 -2 37 -2 50 0 12 2 0 4 -28 4 -27 0 -38 -2 -22 -4z"/>
<path d="M12233 22863 c9 -2 25 -2 35 0 9 3 1 5 -18 5 -19 0 -27 -2 -17 -5z"/>
<path d="M12353 22853 c9 -2 25 -2 35 0 9 3 1 5 -18 5 -19 0 -27 -2 -17 -5z"/>
<path d="M12458 22843 c6 -2 18 -2 25 0 6 3 1 5 -13 5 -14 0 -19 -2 -12 -5z"/>
<path d="M12548 22833 c6 -2 18 -2 25 0 6 3 1 5 -13 5 -14 0 -19 -2 -12 -5z"/>
<path d="M12628 22823 c6 -2 18 -2 25 0 6 3 1 5 -13 5 -14 0 -19 -2 -12 -5z"/>
<path d="M12698 22813 c6 -2 18 -2 25 0 6 3 1 5 -13 5 -14 0 -19 -2 -12 -5z"/>
<path d="M12778 22803 c7 -3 16 -2 19 1 4 3 -2 6 -13 5 -11 0 -14 -3 -6 -6z"/>
<path d="M12838 22793 c7 -3 16 -2 19 1 4 3 -2 6 -13 5 -11 0 -14 -3 -6 -6z"/>
<path d="M12898 22783 c7 -3 16 -2 19 1 4 3 -2 6 -13 5 -11 0 -14 -3 -6 -6z"/>
<path d="M12958 22773 c7 -3 16 -2 19 1 4 3 -2 6 -13 5 -11 0 -14 -3 -6 -6z"/>
<path d="M13018 22763 c7 -3 16 -2 19 1 4 3 -2 6 -13 5 -11 0 -14 -3 -6 -6z"/>
<path d="M13068 22753 c7 -3 16 -2 19 1 4 3 -2 6 -13 5 -11 0 -14 -3 -6 -6z"/>
<path d="M13118 22743 c7 -3 16 -2 19 1 4 3 -2 6 -13 5 -11 0 -14 -3 -6 -6z"/>
<path d="M13168 22733 c7 -3 16 -2 19 1 4 3 -2 6 -13 5 -11 0 -14 -3 -6 -6z"/>
<path d="M13218 22723 c7 -3 16 -2 19 1 4 3 -2 6 -13 5 -11 0 -14 -3 -6 -6z"/>
<path d="M13308 22703 c7 -3 16 -2 19 1 4 3 -2 6 -13 5 -11 0 -14 -3 -6 -6z"/>
<path d="M11583 22603 c54 -2 139 -2 190 0 51 1 7 3 -98 3 -104 0 -146 -2 -92
-3z"/>
<path d="M12023 22593 c15 -2 39 -2 55 0 15 2 2 4 -28 4 -30 0 -43 -2 -27 -4z"/>
<path d="M12193 22583 c9 -2 25 -2 35 0 9 3 1 5 -18 5 -19 0 -27 -2 -17 -5z"/>
<path d="M12313 22573 c9 -2 25 -2 35 0 9 3 1 5 -18 5 -19 0 -27 -2 -17 -5z"/>
<path d="M12423 22563 c9 -2 23 -2 30 0 6 3 -1 5 -18 5 -16 0 -22 -2 -12 -5z"/>
<path d="M10818 22553 c6 -2 18 -2 25 0 6 3 1 5 -13 5 -14 0 -19 -2 -12 -5z"/>
<path d="M12508 22553 c6 -2 18 -2 25 0 6 3 1 5 -13 5 -14 0 -19 -2 -12 -5z"/>
<path d="M10738 22543 c6 -2 18 -2 25 0 6 3 1 5 -13 5 -14 0 -19 -2 -12 -5z"/>
<path d="M12588 22543 c6 -2 18 -2 25 0 6 3 1 5 -13 5 -14 0 -19 -2 -12 -5z"/>
<path d="M10668 22533 c7 -3 16 -2 19 1 4 3 -2 6 -13 5 -11 0 -14 -3 -6 -6z"/>
<path d="M12668 22533 c6 -2 18 -2 25 0 6 3 1 5 -13 5 -14 0 -19 -2 -12 -5z"/>
<path d="M10598 22523 c7 -3 16 -2 19 1 4 3 -2 6 -13 5 -11 0 -14 -3 -6 -6z"/>
<path d="M12738 22523 c7 -3 16 -2 19 1 4 3 -2 6 -13 5 -11 0 -14 -3 -6 -6z"/>
<path d="M10528 22513 c6 -2 18 -2 25 0 6 3 1 5 -13 5 -14 0 -19 -2 -12 -5z"/>
<path d="M12808 22513 c7 -3 16 -2 19 1 4 3 -2 6 -13 5 -11 0 -14 -3 -6 -6z"/>
<path d="M10468 22503 c7 -3 16 -2 19 1 4 3 -2 6 -13 5 -11 0 -14 -3 -6 -6z"/>
<path d="M12868 22503 c7 -3 16 -2 19 1 4 3 -2 6 -13 5 -11 0 -14 -3 -6 -6z"/>
<path d="M10418 22493 c7 -3 16 -2 19 1 4 3 -2 6 -13 5 -11 0 -14 -3 -6 -6z"/>
<path d="M10358 22483 c7 -3 16 -2 19 1 4 3 -2 6 -13 5 -11 0 -14 -3 -6 -6z"/>
<path d="M12978 22483 c7 -3 16 -2 19 1 4 3 -2 6 -13 5 -11 0 -14 -3 -6 -6z"/>
<path d="M10308 22473 c7 -3 16 -2 19 1 4 3 -2 6 -13 5 -11 0 -14 -3 -6 -6z"/>
<path d="M13028 22473 c7 -3 16 -2 19 1 4 3 -2 6 -13 5 -11 0 -14 -3 -6 -6z"/>
<path d="M10258 22463 c7 -3 16 -2 19 1 4 3 -2 6 -13 5 -11 0 -14 -3 -6 -6z"/>
<path d="M10208 22453 c7 -3 16 -2 19 1 4 3 -2 6 -13 5 -11 0 -14 -3 -6 -6z"/>
<path d="M10158 22443 c7 -3 16 -2 19 1 4 3 -2 6 -13 5 -11 0 -14 -3 -6 -6z"/>
<path d="M13178 22443 c7 -3 16 -2 19 1 4 3 -2 6 -13 5 -11 0 -14 -3 -6 -6z"/>
<path d="M13268 22423 c7 -3 16 -2 19 1 4 3 -2 6 -13 5 -11 0 -14 -3 -6 -6z"/>
<path d="M11904 22075 c-310 -55 -564 -250 -679 -524 -53 -124 -70 -217 -69
-366 1 -233 61 -393 199 -530 147 -148 349 -223 685 -256 174 -16 691 -1 714
22 2 2 12 72 21 154 19 182 82 678 91 722 6 31 6 32 -37 37 -24 3 -163 12
-309 21 -146 9 -286 18 -311 22 l-46 5 -17 -153 c-10 -85 -19 -161 -22 -170
-4 -14 11 -17 106 -24 104 -6 110 -8 110 -28 -1 -40 -28 -238 -33 -244 -3 -3
-61 -7 -129 -10 -194 -8 -332 36 -418 135 -65 74 -84 137 -84 277 1 103 4 130
26 193 64 179 192 297 379 348 47 13 99 18 194 18 153 -1 276 -24 447 -84 62
-22 113 -38 114 -37 1 1 4 89 6 194 l3 193 -110 25 c-227 54 -330 67 -545 71
-147 2 -228 -1 -286 -11z"/>
<path d="M10465 22031 c-44 -15 -138 -45 -210 -66 -71 -21 -134 -42 -138 -46
-5 -4 14 -88 42 -187 86 -305 221 -825 216 -831 -3 -2 -87 76 -188 175 -100
99 -293 287 -430 418 l-247 239 -233 -72 c-127 -40 -257 -80 -287 -89 -30 -9
-59 -19 -63 -22 -4 -4 5 -49 22 -101 58 -186 313 -1181 351 -1374 12 -60 23
-111 24 -113 2 -1 72 20 157 47 85 27 186 58 225 70 l71 21 -59 207 c-67 238
-208 770 -208 785 0 6 60 -47 133 -118 72 -71 233 -221 357 -333 124 -112 260
-238 302 -279 l77 -75 208 66 c114 36 243 76 286 89 48 14 77 27 77 36 0 7
-18 75 -39 150 -47 160 -298 1167 -332 1325 -12 59 -25 107 -28 106 -3 0 -42
-13 -86 -28z"/>
<path d="M8214 22034 c-18 -14 -18 -15 4 -4 12 6 22 13 22 15 0 8 -5 6 -26
-11z"/>
<path d="M15130 22036 c0 -3 9 -10 20 -16 11 -6 20 -8 20 -6 0 3 -9 10 -20 16
-11 6 -20 8 -20 6z"/>
<path d="M15240 21976 c0 -3 9 -10 20 -16 11 -6 20 -8 20 -6 0 3 -9 10 -20 16
-11 6 -20 8 -20 6z"/>
<path d="M14720 21920 c8 -5 20 -10 25 -10 6 0 3 5 -5 10 -8 5 -19 10 -25 10
-5 0 -3 -5 5 -10z"/>
<path d="M8590 21910 c-8 -5 -10 -10 -5 -10 6 0 17 5 25 10 8 5 11 10 5 10 -5
0 -17 -5 -25 -10z"/>
<path d="M7944 21884 c-18 -14 -18 -15 4 -4 12 6 22 13 22 15 0 8 -5 6 -26
-11z"/>
<path d="M8378 21804 c-38 -20 -36 -28 2 -9 17 9 30 18 30 20 0 7 -1 6 -32
-11z"/>
<path d="M14980 21796 c0 -3 9 -10 20 -16 11 -6 20 -8 20 -6 0 3 -9 10 -20 16
-11 6 -20 8 -20 6z"/>
<path d="M7744 21764 c-18 -14 -18 -15 4 -4 12 6 22 13 22 15 0 8 -5 6 -26
-11z"/>
<path d="M15580 21776 c0 -3 9 -10 20 -16 11 -6 20 -8 20 -6 0 3 -9 10 -20 16
-11 6 -20 8 -20 6z"/>
<path d="M8234 21724 c-18 -14 -18 -15 4 -4 12 6 22 13 22 15 0 8 -5 6 -26
-11z"/>
<path d="M15690 21706 c0 -3 9 -10 20 -16 11 -6 20 -8 20 -6 0 3 -9 10 -20 16
-11 6 -20 8 -20 6z"/>
<path d="M7557 21645 c-37 -25 -67 -48 -67 -50 0 -3 32 16 70 41 61 41 77 54
67 54 -1 0 -33 -20 -70 -45z"/>
<path d="M8144 21674 c-18 -14 -18 -15 4 -4 12 6 22 13 22 15 0 8 -5 6 -26
-11z"/>
<path d="M15180 21686 c0 -3 9 -10 20 -16 11 -6 20 -8 20 -6 0 3 -9 10 -20 16
-11 6 -20 8 -20 6z"/>
<path d="M15250 21646 c0 -3 9 -10 20 -16 11 -6 20 -8 20 -6 0 3 -9 10 -20 16
-11 6 -20 8 -20 6z"/>
<path d="M8024 21604 c-18 -14 -18 -15 4 -4 12 6 22 13 22 15 0 8 -5 6 -26
-11z"/>
<path d="M15300 21616 c0 -3 9 -10 20 -16 11 -6 20 -8 20 -6 0 3 -9 10 -20 16
-11 6 -20 8 -20 6z"/>
<path d="M15830 21616 c0 -2 14 -14 30 -26 17 -12 30 -19 30 -16 0 2 -13 14
-30 26 -16 12 -30 19 -30 16z"/>
<path d="M7974 21574 c-18 -14 -18 -15 4 -4 12 6 22 13 22 15 0 8 -5 6 -26
-11z"/>
<path d="M15350 21586 c0 -3 9 -10 20 -16 11 -6 20 -8 20 -6 0 3 -9 10 -20 16
-11 6 -20 8 -20 6z"/>
<path d="M15400 21556 c0 -3 9 -10 20 -16 11 -6 20 -8 20 -6 0 3 -9 10 -20 16
-11 6 -20 8 -20 6z"/>
<path d="M7385 21524 l-30 -26 33 22 c17 12 32 23 32 26 0 7 -4 5 -35 -22z"/>
<path d="M15960 21526 c0 -2 8 -10 18 -17 15 -13 16 -12 3 4 -13 16 -21 21
-21 13z"/>
<path d="M15480 21506 c0 -3 9 -10 20 -16 11 -6 20 -8 20 -6 0 3 -9 10 -20 16
-11 6 -20 8 -20 6z"/>
<path d="M7329 21483 c-13 -16 -12 -17 4 -4 16 13 21 21 13 21 -2 0 -10 -8
-17 -17z"/>
<path d="M7803 21469 c-35 -22 -46 -37 -15 -20 22 13 58 40 52 41 -3 0 -20
-10 -37 -21z"/>
<path d="M16030 21476 c0 -2 8 -10 18 -17 15 -13 16 -12 3 4 -13 16 -21 21
-21 13z"/>
<path d="M7259 21433 c-13 -16 -12 -17 4 -4 16 13 21 21 13 21 -2 0 -10 -8
-17 -17z"/>
<path d="M16070 21446 c0 -2 8 -10 18 -17 15 -13 16 -12 3 4 -13 16 -21 21
-21 13z"/>
<path d="M7219 21403 c-13 -16 -12 -17 4 -4 16 13 21 21 13 21 -2 0 -10 -8
-17 -17z"/>
<path d="M16110 21416 c0 -2 8 -10 18 -17 15 -13 16 -12 3 4 -13 16 -21 21
-21 13z"/>
<path d="M7179 21373 c-13 -16 -12 -17 4 -4 9 7 17 15 17 17 0 8 -8 3 -21 -13z"/>
<path d="M16150 21386 c0 -2 8 -10 18 -17 15 -13 16 -12 3 4 -13 16 -21 21
-21 13z"/>
<path d="M7635 21354 l-30 -26 33 22 c17 12 32 23 32 26 0 7 -4 5 -35 -22z"/>
<path d="M15710 21356 c0 -2 14 -14 30 -26 17 -12 30 -19 30 -16 0 2 -13 14
-30 26 -16 12 -30 19 -30 16z"/>
<path d="M16190 21356 c0 -2 8 -10 18 -17 15 -13 16 -12 3 4 -13 16 -21 21
-21 13z"/>
<path d="M7129 21333 c-13 -16 -12 -17 4 -4 16 13 21 21 13 21 -2 0 -10 -8
-17 -17z"/>
<path d="M7089 21303 c-13 -16 -12 -17 4 -4 16 13 21 21 13 21 -2 0 -10 -8
-17 -17z"/>
<path d="M16240 21316 c0 -2 8 -10 18 -17 15 -13 16 -12 3 4 -13 16 -21 21
-21 13z"/>
<path d="M7535 21284 l-30 -26 33 22 c17 12 32 23 32 26 0 7 -4 5 -35 -22z"/>
<path d="M15810 21286 c0 -2 8 -10 18 -17 15 -13 16 -12 3 4 -13 16 -21 21
-21 13z"/>
<path d="M16295 21270 c10 -11 20 -20 23 -20 3 0 -3 9 -13 20 -10 11 -20 20
-23 20 -3 0 3 -9 13 -20z"/>
<path d="M7039 21263 c-13 -16 -12 -17 4 -4 9 7 17 15 17 17 0 8 -8 3 -21 -13z"/>
<path d="M7479 21243 c-13 -16 -12 -17 4 -4 9 7 17 15 17 17 0 8 -8 3 -21 -13z"/>
<path d="M16345 21230 c10 -11 20 -20 23 -20 3 0 -3 9 -13 20 -10 11 -20 20
-23 20 -3 0 3 -9 13 -20z"/>
<path d="M6984 21218 l-19 -23 23 19 c21 18 27 26 19 26 -2 0 -12 -10 -23 -22z"/>
<path d="M15880 21236 c0 -2 8 -10 18 -17 15 -13 16 -12 3 4 -13 16 -21 21
-21 13z"/>
<path d="M7409 21193 c-13 -16 -12 -17 4 -4 9 7 17 15 17 17 0 8 -8 3 -21 -13z"/>
<path d="M8250 21147 c-52 -35 -151 -99 -220 -142 -69 -43 -126 -79 -128 -80
-2 -1 27 -48 63 -104 160 -246 441 -727 666 -1138 52 -95 97 -173 100 -173 4
0 49 28 100 62 52 33 150 97 219 141 69 43 127 81 129 83 2 2 -50 90 -116 196
-232 374 -478 795 -638 1091 -38 70 -72 127 -75 127 -3 0 -48 -29 -100 -63z"/>
<path d="M15920 21206 c0 -2 8 -10 18 -17 15 -13 16 -12 3 4 -13 16 -21 21
-21 13z"/>
<path d="M6929 21173 l-24 -28 28 24 c15 14 27 26 27 28 0 8 -8 1 -31 -24z"/>
<path d="M16405 21180 c10 -11 20 -20 23 -20 3 0 -3 9 -13 20 -10 11 -20 20
-23 20 -3 0 3 -9 13 -20z"/>
<path d="M7369 21163 c-13 -16 -12 -17 4 -4 16 13 21 21 13 21 -2 0 -10 -8
-17 -17z"/>
<path d="M15960 21176 c0 -2 8 -10 18 -17 15 -13 16 -12 3 4 -13 16 -21 21
-21 13z"/>
<path d="M6869 21123 l-24 -28 28 24 c15 14 27 26 27 28 0 8 -8 1 -31 -24z"/>
<path d="M7324 21128 l-19 -23 23 19 c21 18 27 26 19 26 -2 0 -12 -10 -23 -22z"/>
<path d="M16000 21146 c0 -2 8 -10 18 -17 15 -13 16 -12 3 4 -13 16 -21 21
-21 13z"/>
<path d="M16470 21125 c13 -14 26 -25 28 -25 3 0 -5 11 -18 25 -13 14 -26 25
-28 25 -3 0 5 -11 18 -25z"/>
<path d="M16055 21100 c10 -11 20 -20 23 -20 3 0 -3 9 -13 20 -10 11 -20 20
-23 20 -3 0 3 -9 13 -20z"/>
<path d="M7279 21093 c-13 -16 -12 -17 4 -4 9 7 17 15 17 17 0 8 -8 3 -21 -13z"/>
<path d="M16510 21097 c0 -2 15 -16 33 -33 l32 -29 -29 33 c-28 30 -36 37 -36
29z"/>
<path d="M6794 21058 l-29 -33 33 29 c17 17 32 31 32 33 0 8 -8 1 -36 -29z"/>
<path d="M7234 21058 l-19 -23 23 19 c21 18 27 26 19 26 -2 0 -12 -10 -23 -22z"/>
<path d="M16105 21060 c10 -11 20 -20 23 -20 3 0 -3 9 -13 20 -10 11 -20 20
-23 20 -3 0 3 -9 13 -20z"/>
<path d="M7184 21018 l-19 -23 23 19 c21 18 27 26 19 26 -2 0 -12 -10 -23 -22z"/>
<path d="M16155 21020 c10 -11 20 -20 23 -20 3 0 -3 9 -13 20 -10 11 -20 20
-23 20 -3 0 3 -9 13 -20z"/>
<path d="M16620 20995 c19 -19 36 -35 39 -35 3 0 -10 16 -29 35 -19 19 -36 35
-39 35 -3 0 10 -16 29 -35z"/>
<path d="M6705 20978 l-40 -43 43 40 c39 36 47 45 39 45 -2 0 -21 -19 -42 -42z"/>
<path d="M16205 20980 c10 -11 20 -20 23 -20 3 0 -3 9 -13 20 -10 11 -20 20
-23 20 -3 0 3 -9 13 -20z"/>
<path d="M7124 20968 l-19 -23 23 19 c21 18 27 26 19 26 -2 0 -12 -10 -23 -22z"/>
<path d="M16270 20925 c13 -14 26 -25 28 -25 3 0 -5 11 -18 25 -13 14 -26 25
-28 25 -3 0 5 -11 18 -25z"/>
<path d="M7064 20918 l-19 -23 23 19 c21 18 27 26 19 26 -2 0 -12 -10 -23 -22z"/>
<path d="M16755 20870 c33 -33 62 -60 64 -60 3 0 -21 27 -54 60 -33 33 -62 60
-64 60 -3 0 21 -27 54 -60z"/>
<path d="M6565 20848 l-70 -73 73 70 c67 64 77 75 69 75 -1 0 -34 -33 -72 -72z"/>
<path d="M6994 20858 l-29 -33 33 29 c30 28 37 36 29 36 -2 0 -16 -15 -33 -32z"/>
<path d="M16340 20865 c13 -14 26 -25 28 -25 3 0 -5 11 -18 25 -13 14 -26 25
-28 25 -3 0 5 -11 18 -25z"/>
<path d="M16420 20795 c19 -19 36 -35 39 -35 3 0 -10 16 -29 35 -19 19 -36 35
-39 35 -3 0 10 -16 29 -35z"/>
<path d="M6909 20783 l-34 -38 38 34 c34 33 42 41 34 41 -2 0 -19 -17 -38 -37z"/>
<path d="M7372 20550 l-193 -198 56 -213 c31 -118 69 -260 86 -315 16 -56 29
-106 29 -112 0 -5 -66 15 -147 43 -82 29 -216 77 -298 107 l-150 54 -199 -203
c-123 -126 -193 -205 -185 -207 8 -3 253 -69 544 -147 l530 -141 71 -77 c61
-65 205 -228 333 -376 l34 -39 182 189 182 190 -177 185 c-274 286 -246 244
-284 422 -18 84 -73 349 -121 588 -48 239 -91 438 -94 441 -3 3 -93 -83 -199
-191z"/>
<path d="M16540 20685 c30 -30 57 -55 59 -55 3 0 -19 25 -49 55 -30 30 -57 55
-59 55 -3 0 19 -25 49 -55z"/>
<path d="M6785 20668 l-60 -63 63 60 c58 55 67 65 59 65 -1 0 -29 -28 -62 -62z"/>
<path d="M6285 20568 l-70 -73 73 70 c67 64 77 75 69 75 -1 0 -34 -33 -72 -72z"/>
<path d="M17075 20550 c33 -33 62 -60 64 -60 3 0 -21 27 -54 60 -33 33 -62 60
-64 60 -3 0 21 -27 54 -60z"/>
<path d="M16690 20547 c0 -2 15 -16 33 -33 l32 -29 -29 33 c-28 30 -36 37 -36
29z"/>
<path d="M6159 20433 l-34 -38 38 34 c20 19 37 36 37 38 0 8 -8 0 -41 -34z"/>
<path d="M17190 20425 c19 -19 36 -35 39 -35 3 0 -10 16 -29 35 -19 19 -36 35
-39 35 -3 0 10 -16 29 -35z"/>
<path d="M6465 20348 l-60 -63 63 60 c58 55 67 65 59 65 -1 0 -29 -28 -62 -62z"/>
<path d="M15835 20186 c-223 -225 -404 -397 -759 -720 l-218 -199 194 -188
193 -187 310 307 c317 313 507 494 743 705 l133 120 -53 51 c-29 28 -116 112
-193 187 l-140 135 -210 -211z"/>
<path d="M16890 20335 c30 -30 57 -55 59 -55 3 0 -19 25 -49 55 -30 30 -57 55
-59 55 -3 0 19 -25 49 -55z"/>
<path d="M6074 20338 l-29 -33 33 29 c30 28 37 36 29 36 -2 0 -16 -15 -33 -32z"/>
<path d="M17270 20335 c13 -14 26 -25 28 -25 3 0 -5 11 -18 25 -13 14 -26 25
-28 25 -3 0 5 -11 18 -25z"/>
<path d="M6019 20273 l-24 -28 28 24 c15 14 27 26 27 28 0 8 -8 1 -31 -24z"/>
<path d="M17330 20265 c13 -14 26 -25 28 -25 3 0 -5 11 -18 25 -13 14 -26 25
-28 25 -3 0 5 -11 18 -25z"/>
<path d="M6349 20223 l-34 -38 38 34 c20 19 37 36 37 38 0 8 -8 0 -41 -34z"/>
<path d="M17000 20215 c19 -19 36 -35 39 -35 3 0 -10 16 -29 35 -19 19 -36 35
-39 35 -3 0 10 -16 29 -35z"/>
<path d="M5964 20208 l-19 -23 23 19 c21 18 27 26 19 26 -2 0 -12 -10 -23 -22z"/>
<path d="M17385 20200 c10 -11 20 -20 23 -20 3 0 -3 9 -13 20 -10 11 -20 20
-23 20 -3 0 3 -9 13 -20z"/>
<path d="M5914 20148 l-19 -23 23 19 c12 11 22 21 22 23 0 8 -8 2 -26 -19z"/>
<path d="M6279 20143 l-24 -28 28 24 c15 14 27 26 27 28 0 8 -8 1 -31 -24z"/>
<path d="M17070 20135 c13 -14 26 -25 28 -25 3 0 -5 11 -18 25 -13 14 -26 25
-28 25 -3 0 5 -11 18 -25z"/>
<path d="M17420 20156 c0 -2 8 -10 18 -17 15 -13 16 -12 3 4 -13 16 -21 21
-21 13z"/>
<path d="M5874 20098 l-19 -23 23 19 c21 18 27 26 19 26 -2 0 -12 -10 -23 -22z"/>
<path d="M17460 20106 c0 -2 8 -10 18 -17 15 -13 16 -12 3 4 -13 16 -21 21
-21 13z"/>
<path d="M6219 20073 l-24 -28 28 24 c15 14 27 26 27 28 0 8 -8 1 -31 -24z"/>
<path d="M17130 20065 c13 -14 26 -25 28 -25 3 0 -5 11 -18 25 -13 14 -26 25
-28 25 -3 0 5 -11 18 -25z"/>
<path d="M5834 20048 l-19 -23 23 19 c21 18 27 26 19 26 -2 0 -12 -10 -23 -22z"/>
<path d="M17500 20056 c0 -2 8 -10 18 -17 15 -13 16 -12 3 4 -13 16 -21 21
-21 13z"/>
<path d="M6164 20008 l-19 -23 23 19 c12 11 22 21 22 23 0 8 -8 2 -26 -19z"/>
<path d="M17180 20005 c13 -14 26 -25 28 -25 3 0 -5 11 -18 25 -13 14 -26 25
-28 25 -3 0 5 -11 18 -25z"/>
<path d="M5799 20003 c-13 -16 -12 -17 4 -4 16 13 21 21 13 21 -2 0 -10 -8
-17 -17z"/>
<path d="M17545 20000 c10 -11 20 -20 23 -20 3 0 -3 9 -13 20 -10 11 -20 20
-23 20 -3 0 3 -9 13 -20z"/>
<path d="M5769 19963 c-13 -16 -12 -17 4 -4 16 13 21 21 13 21 -2 0 -10 -8
-17 -17z"/>
<path d="M6124 19958 l-19 -23 23 19 c21 18 27 26 19 26 -2 0 -12 -10 -23 -22z"/>
<path d="M17225 19950 c10 -11 20 -20 23 -20 3 0 -3 9 -13 20 -10 11 -20 20
-23 20 -3 0 3 -9 13 -20z"/>
<path d="M17570 19966 c0 -2 8 -10 18 -17 15 -13 16 -12 3 4 -13 16 -21 21
-21 13z"/>
<path d="M5739 19923 c-13 -16 -12 -17 4 -4 9 7 17 15 17 17 0 8 -8 3 -21 -13z"/>
<path d="M17600 19926 c0 -2 8 -10 18 -17 15 -13 16 -12 3 4 -13 16 -21 21
-21 13z"/>
<path d="M6079 19903 c-13 -16 -12 -17 4 -4 16 13 21 21 13 21 -2 0 -10 -8
-17 -17z"/>
<path d="M17265 19900 c10 -11 20 -20 23 -20 3 0 -3 9 -13 20 -10 11 -20 20
-23 20 -3 0 3 -9 13 -20z"/>
<path d="M5709 19883 c-13 -16 -12 -17 4 -4 16 13 21 21 13 21 -2 0 -10 -8
-17 -17z"/>
<path d="M17630 19886 c0 -2 8 -10 18 -17 15 -13 16 -12 3 4 -13 16 -21 21
-21 13z"/>
<path d="M6044 19858 l-19 -23 23 19 c21 18 27 26 19 26 -2 0 -12 -10 -23 -22z"/>
<path d="M17290 19866 c0 -2 8 -10 18 -17 15 -13 16 -12 3 4 -13 16 -21 21
-21 13z"/>
<path d="M5679 19843 c-13 -16 -12 -17 4 -4 9 7 17 15 17 17 0 8 -8 3 -21 -13z"/>
<path d="M11350 19843 c-178 -16 -277 -28 -405 -49 -172 -28 -187 -32 -180
-45 9 -13 68 -11 155 5 97 18 346 17 343 -1 -2 -8 9 -13 30 -13 59 -1 -5 -22
-138 -47 -11 -2 -36 -6 -55 -9 -19 -4 -39 -13 -43 -21 -5 -7 -12 -11 -18 -8
-5 4 -9 1 -9 -4 0 -6 -14 -11 -31 -11 -31 0 -59 -19 -59 -40 0 -8 -9 -10 -24
-6 -13 3 -26 3 -28 -2 -2 -4 -27 -15 -56 -26 -42 -15 -55 -16 -67 -6 -13 11
-14 10 -10 -2 8 -20 -45 -45 -56 -26 -7 10 -9 9 -9 -4 0 -22 -54 -60 -75 -52
-9 4 -14 13 -10 22 4 11 2 12 -7 4 -7 -5 -26 -12 -43 -15 l-30 -4 33 -2 c44
-1 38 -23 -9 -33 -19 -4 -61 -14 -94 -22 -33 -9 -82 -15 -110 -15 -30 1 -78
-9 -120 -24 -137 -48 -160 -54 -151 -38 9 14 -102 -22 -160 -52 -29 -14 -109
-58 -179 -97 -70 -38 -131 -70 -136 -70 -5 0 -4 12 1 26 6 14 8 29 5 33 -6 11
64 66 155 122 41 26 88 58 103 72 16 14 46 28 72 32 25 3 45 10 45 15 0 4 39
20 86 35 47 15 101 38 120 51 19 13 40 21 48 18 7 -3 22 3 31 13 10 10 57 32
104 49 47 17 115 43 151 57 88 34 120 45 151 52 23 4 46 31 36 41 -6 6 -300
-74 -427 -116 -276 -92 -582 -231 -825 -376 -156 -92 -170 -104 -203 -172 -27
-57 -76 -97 -132 -109 -35 -6 -48 -22 -30 -33 20 -12 4 -38 -29 -47 -36 -10
-264 -200 -256 -214 4 -5 -12 -27 -34 -48 -23 -22 -41 -44 -41 -49 0 -5 -7
-12 -15 -16 -8 -3 -20 -17 -27 -31 -11 -24 -44 -43 -55 -31 -4 3 4 17 16 30
16 17 20 30 16 48 -5 20 3 32 54 77 34 29 84 68 112 87 53 36 51 46 -4 17 -18
-9 -37 -17 -42 -17 -19 -1 -133 -107 -161 -149 -40 -63 -74 -95 -126 -122
-111 -58 -462 -519 -648 -850 -287 -513 -469 -1073 -534 -1650 -22 -187 -21
-239 3 -330 12 -48 31 -181 45 -330 14 -150 27 -241 31 -227 4 12 11 22 15 22
8 0 76 -144 86 -182 4 -18 13 -28 24 -28 30 0 128 -98 170 -170 28 -47 49 -71
70 -80 18 -7 38 -23 45 -34 24 -36 66 -197 73 -278 l7 -77 60 40 c33 21 92 53
132 69 141 59 146 59 973 67 l759 6 -86 91 c-47 50 -122 139 -167 198 l-81
108 -488 0 -488 0 187 278 c211 311 255 375 293 415 26 29 26 29 6 45 -32 26
-62 83 -70 130 -6 40 -9 44 -32 39 -19 -3 -26 1 -34 20 -14 38 -11 43 24 44
l32 1 -33 8 c-18 4 -36 11 -40 14 -11 11 13 40 39 47 24 7 24 7 2 8 -18 1 -23
7 -23 26 0 15 -7 39 -14 54 -14 26 -13 31 20 80 20 29 38 69 41 89 4 20 17 57
30 81 18 34 23 60 23 112 0 38 5 71 11 75 7 4 8 20 5 43 -17 92 -18 113 -7
124 6 6 11 32 11 57 0 76 29 297 56 430 72 350 218 699 419 1000 113 170 189
263 335 414 232 239 488 425 784 571 260 128 480 202 743 250 132 25 193 45
193 66 0 6 -9 8 -20 4 -35 -11 -21 9 22 33 32 17 43 19 50 10 6 -10 10 -10 17
0 4 8 20 15 35 15 14 1 26 5 26 9 0 4 14 6 30 4 17 -2 30 1 30 6 0 4 12 5 26
2 17 -5 25 -3 21 3 -7 11 68 27 83 18 5 -3 19 -1 30 5 15 8 32 7 63 -1 52 -16
55 -18 37 -30 -11 -7 -1 -9 33 -4 28 4 47 2 47 -4 0 -5 28 -11 63 -14 76 -6
206 -42 227 -62 12 -13 12 -19 2 -35 -11 -17 -10 -20 7 -20 11 0 23 5 26 10 3
6 19 10 36 10 l29 0 -41 40 -41 40 44 0 c52 0 92 -23 68 -40 -12 -8 -10 -10
11 -10 15 0 29 7 32 15 4 8 29 26 57 40 47 24 53 25 64 10 10 -14 15 -14 58 1
33 13 44 22 40 32 -4 13 5 14 59 8 l63 -7 -18 20 c-11 12 -28 21 -38 21 -10 0
-21 7 -24 15 -4 8 -24 25 -45 37 -38 21 -50 38 -28 38 23 0 109 -33 120 -46 6
-8 19 -14 28 -13 11 0 10 3 -6 11 -31 15 -29 30 2 22 14 -3 25 -2 25 4 0 5
-12 13 -26 16 -17 5 -24 12 -20 21 3 10 -1 15 -12 15 -10 0 -33 15 -51 33 -18
17 -47 37 -65 44 -30 11 -30 11 -5 12 15 1 32 7 38 15 10 12 -3 18 -79 35
-298 70 -604 102 -974 99 -149 0 -287 -3 -306 -5z m1188 -109 c18 -4 32 -12
32 -21 0 -8 -4 -11 -10 -8 -5 3 -53 10 -105 14 -53 4 -101 14 -108 20 -9 10 6
11 73 7 47 -4 100 -9 118 -12z m-772 -37 c4 -4 -6 -13 -23 -19 -27 -10 -29
-13 -16 -24 14 -9 12 -12 -16 -16 -22 -3 -35 0 -38 9 -7 18 -15 16 -41 -7 -24
-23 -52 -20 -90 8 -39 30 -20 51 45 51 30 -1 57 1 59 4 8 8 112 3 120 -6z
m690 -47 c26 -10 26 -11 9 -30 -15 -17 -16 -24 -5 -49 14 -35 41 -54 98 -72
23 -7 42 -16 42 -21 0 -11 -120 -7 -126 4 -3 5 -17 8 -30 8 -19 0 -29 8 -37
30 -6 17 -15 30 -19 30 -4 0 -8 9 -8 19 0 10 -7 22 -15 25 -25 9 0 46 30 46
14 0 25 5 25 10 0 12 2 12 36 0z m49 -230 c0 -18 -43 -26 -57 -12 -16 16 2 33
30 30 16 -2 27 -9 27 -18z m-1972 -92 c72 3 86 -8 48 -42 -52 -47 -147 -78
-244 -79 -66 0 -67 2 -33 60 28 50 92 78 141 64 11 -3 50 -5 88 -3z"/>
<path d="M6009 19813 c-13 -16 -12 -17 4 -4 16 13 21 21 13 21 -2 0 -10 -8
-17 -17z"/>
<path d="M17335 19810 c10 -11 20 -20 23 -20 3 0 -3 9 -13 20 -10 11 -20 20
-23 20 -3 0 3 -9 13 -20z"/>
<path d="M5649 19803 c-13 -16 -12 -17 4 -4 16 13 21 21 13 21 -2 0 -10 -8
-17 -17z"/>
<path d="M17680 19816 c0 -2 8 -10 18 -17 15 -13 16 -12 3 4 -13 16 -21 21
-21 13z"/>
<path d="M5979 19773 c-13 -16 -12 -17 4 -4 16 13 21 21 13 21 -2 0 -10 -8
-17 -17z"/>
<path d="M17360 19776 c0 -2 8 -10 18 -17 15 -13 16 -12 3 4 -13 16 -21 21
-21 13z"/>
<path d="M17730 19750 c12 -16 24 -30 26 -30 3 0 -4 14 -16 30 -12 17 -24 30
-26 30 -3 0 4 -13 16 -30z"/>
<path d="M5590 19720 c-12 -16 -19 -30 -16 -30 2 0 14 14 26 30 12 17 19 30
16 30 -2 0 -14 -13 -26 -30z"/>
<path d="M5949 19733 c-13 -16 -12 -17 4 -4 16 13 21 21 13 21 -2 0 -10 -8
-17 -17z"/>
<path d="M17390 19736 c0 -2 8 -10 18 -17 15 -13 16 -12 3 4 -13 16 -21 21
-21 13z"/>
<path d="M5919 19693 c-13 -16 -12 -17 4 -4 16 13 21 21 13 21 -2 0 -10 -8
-17 -17z"/>
<path d="M17440 19670 c12 -16 24 -30 26 -30 3 0 -4 14 -16 30 -12 17 -24 30
-26 30 -3 0 4 -13 16 -30z"/>
<path d="M5889 19653 c-13 -16 -12 -17 4 -4 16 13 21 21 13 21 -2 0 -10 -8
-17 -17z"/>
<path d="M17846 19580 c26 -38 49 -70 51 -70 5 0 -2 12 -49 83 -21 31 -41 57
-43 57 -3 0 16 -31 41 -70z"/>
<path d="M17470 19626 c0 -2 8 -10 18 -17 15 -13 16 -12 3 4 -13 16 -21 21
-21 13z"/>
<path d="M5839 19583 c-13 -16 -12 -17 4 -4 16 13 21 21 13 21 -2 0 -10 -8
-17 -17z"/>
<path d="M16780 19543 c-109 -71 -649 -392 -825 -490 -99 -55 -259 -140 -355
-188 -96 -48 -176 -88 -178 -90 -2 -1 48 -83 111 -181 62 -99 123 -196 136
-217 22 -35 25 -37 45 -24 167 109 1073 637 1092 637 21 -1 160 -224 186 -299
27 -75 17 -125 -32 -172 -49 -47 -118 -66 -181 -49 -87 24 -154 87 -222 208
l-34 63 -35 -43 c-19 -24 -111 -142 -205 -263 -94 -121 -214 -269 -267 -330
-53 -60 -96 -113 -96 -117 0 -4 51 -87 113 -185 62 -98 126 -199 142 -225 17
-27 32 -48 35 -48 7 1 23 23 170 250 73 113 164 248 202 302 l69 96 52 -35
c175 -120 336 -138 503 -58 175 84 266 232 250 404 -14 151 -106 332 -361 706
-56 83 -134 203 -174 268 -40 64 -76 117 -80 116 -3 0 -31 -16 -61 -36z"/>
<path d="M17560 19500 c12 -16 24 -30 26 -30 3 0 -4 14 -16 30 -12 17 -24 30
-26 30 -3 0 4 -13 16 -30z"/>
<path d="M5410 19450 c-6 -11 -8 -20 -6 -20 3 0 10 9 16 20 6 11 8 20 6 20 -3
0 -10 -9 -16 -20z"/>
<path d="M5732 19428 c-36 -54 -44 -68 -39 -68 2 0 21 25 41 55 20 30 34 55
32 55 -3 0 -18 -19 -34 -42z"/>
<path d="M13074 19397 c22 -21 41 -35 44 -32 8 7 -13 28 -50 49 l-33 20 39
-37z"/>
<path d="M17659 19355 c5 -11 17 -29 26 -40 l16 -20 -10 20 c-5 11 -17 29 -26
40 l-16 20 10 -20z"/>
<path d="M18000 19340 c6 -11 13 -20 16 -20 2 0 0 9 -6 20 -6 11 -13 20 -16
20 -2 0 0 -9 6 -20z"/>
<path d="M5630 19270 c-6 -11 -8 -20 -6 -20 3 0 10 9 16 20 6 11 8 20 6 20 -3
0 -10 -9 -16 -20z"/>
<path d="M5580 19190 c-6 -11 -8 -20 -6 -20 3 0 10 9 16 20 6 11 8 20 6 20 -3
0 -10 -9 -16 -20z"/>
<path d="M18090 19190 c6 -11 13 -20 16 -20 2 0 0 9 -6 20 -6 11 -13 20 -16
20 -2 0 0 -9 6 -20z"/>
<path d="M5240 19170 c-6 -11 -8 -20 -6 -20 3 0 10 9 16 20 6 11 8 20 6 20 -3
0 -10 -9 -16 -20z"/>
<path d="M17780 19160 c6 -11 13 -20 16 -20 2 0 0 9 -6 20 -6 11 -13 20 -16
20 -2 0 0 -9 6 -20z"/>
<path d="M18130 19120 c6 -11 13 -20 16 -20 2 0 0 9 -6 20 -6 11 -13 20 -16
20 -2 0 0 -9 6 -20z"/>
<path d="M17810 19110 c6 -11 13 -20 16 -20 2 0 0 9 -6 20 -6 11 -13 20 -16
20 -2 0 0 -9 6 -20z"/>
<path d="M5200 19100 c-6 -11 -8 -20 -6 -20 3 0 10 9 16 20 6 11 8 20 6 20 -3
0 -10 -9 -16 -20z"/>
<path d="M5520 19090 c-6 -11 -8 -20 -6 -20 3 0 10 9 16 20 6 11 8 20 6 20 -3
0 -10 -9 -16 -20z"/>
<path d="M18180 19030 c6 -11 13 -20 16 -20 2 0 0 9 -6 20 -6 11 -13 20 -16
20 -2 0 0 -9 6 -20z"/>
<path d="M5150 19010 c-6 -11 -8 -20 -6 -20 3 0 10 9 16 20 6 11 8 20 6 20 -3
0 -10 -9 -16 -20z"/>
<path d="M17930 18900 c6 -11 13 -20 16 -20 2 0 0 9 -6 20 -6 11 -13 20 -16
20 -2 0 0 -9 6 -20z"/>
<path d="M18250 18900 c6 -11 13 -20 16 -20 2 0 0 9 -6 20 -6 11 -13 20 -16
20 -2 0 0 -9 6 -20z"/>
<path d="M5390 18860 c-6 -11 -8 -20 -6 -20 3 0 10 9 16 20 6 11 8 20 6 20 -3
0 -10 -9 -16 -20z"/>
<path d="M5034 18789 c-19 -39 -34 -73 -32 -75 2 -2 21 30 41 71 20 41 35 75
32 75 -3 0 -21 -32 -41 -71z"/>
<path d="M18015 18740 c9 -16 18 -30 21 -30 2 0 -2 14 -11 30 -9 17 -18 30
-21 30 -2 0 2 -13 11 -30z"/>
<path d="M18360 18685 c0 -5 5 -17 10 -25 5 -8 10 -10 10 -5 0 6 -5 17 -10 25
-5 8 -10 11 -10 5z"/>
<path d="M5798 18527 c-26 -51 -81 -154 -123 -230 -41 -75 -75 -141 -75 -145
0 -5 60 -41 133 -82 332 -184 755 -443 1076 -656 102 -68 186 -122 186 -121 1
1 117 218 258 482 140 264 276 516 300 560 25 44 42 83 38 87 -7 8 -290 188
-296 188 -2 0 -48 -87 -103 -192 -183 -357 -243 -460 -262 -455 -20 5 -570
335 -870 522 -107 67 -200 124 -205 127 -6 4 -31 -34 -57 -85z"/>
<path d="M18100 18575 c0 -5 5 -17 10 -25 5 -8 10 -10 10 -5 0 6 -5 17 -10 25
-5 8 -10 11 -10 5z"/>
<path d="M18430 18535 c0 -5 5 -17 10 -25 5 -8 10 -10 10 -5 0 6 -5 17 -10 25
-5 8 -10 11 -10 5z"/>
<path d="M14290 18417 c0 -28 25 -65 36 -54 5 4 4 11 -2 15 -20 14 -24 41 -6
51 15 9 14 10 -5 11 -17 0 -23 -6 -23 -23z"/>
<path d="M14565 18190 c-3 -5 1 -10 9 -10 9 0 16 5 16 10 0 6 -4 10 -9 10 -6
0 -13 -4 -16 -10z"/>
<path d="M17740 17669 c-278 -63 -978 -190 -1270 -229 -223 -30 -201 -20 -184
-82 8 -29 48 -205 90 -391 133 -600 172 -698 337 -854 82 -78 189 -137 302
-168 61 -16 295 -33 295 -21 0 5 -829 1192 -884 1266 -6 8 13 -5 42 -30 171
-145 298 -221 427 -255 303 -79 633 63 883 382 34 43 69 87 77 98 15 18 16 9
10 -125 -9 -239 -40 -390 -106 -527 -114 -238 -335 -333 -591 -253 -32 10 -58
14 -58 10 0 -4 36 -99 81 -211 44 -112 94 -239 111 -283 l30 -78 62 6 c291 32
547 180 649 375 57 108 72 170 71 306 -1 147 -4 166 -109 595 -46 190 -91 380
-100 423 -10 44 -22 76 -29 76 -6 -1 -67 -14 -136 -30z"/>
<path d="M15131 17314 c0 -11 3 -14 6 -6 3 7 2 16 -1 19 -3 4 -6 -2 -5 -13z"/>
<path d="M18601 17184 c0 -11 3 -14 6 -6 3 7 2 16 -1 19 -3 4 -6 -2 -5 -13z"/>
<path d="M4431 17094 c0 -11 3 -14 6 -6 3 7 2 16 -1 19 -3 4 -6 -2 -5 -13z"/>
<path d="M4721 17094 c0 -11 3 -14 6 -6 3 7 2 16 -1 19 -3 4 -6 -2 -5 -13z"/>
<path d="M18921 17054 c0 -11 3 -14 6 -6 3 7 2 16 -1 19 -3 4 -6 -2 -5 -13z"/>
<path d="M18641 17014 c0 -11 3 -14 6 -6 3 7 2 16 -1 19 -3 4 -6 -2 -5 -13z"/>
<path d="M4401 16954 c0 -11 3 -14 6 -6 3 7 2 16 -1 19 -3 4 -6 -2 -5 -13z"/>
<path d="M4681 16914 c0 -11 3 -14 6 -6 3 7 2 16 -1 19 -3 4 -6 -2 -5 -13z"/>
<path d="M4391 16904 c0 -11 3 -14 6 -6 3 7 2 16 -1 19 -3 4 -6 -2 -5 -13z"/>
<path d="M4671 16864 c0 -11 3 -14 6 -6 3 7 2 16 -1 19 -3 4 -6 -2 -5 -13z"/>
<path d="M18961 16854 c0 -11 3 -14 6 -6 3 7 2 16 -1 19 -3 4 -6 -2 -5 -13z"/>
<path d="M4661 16814 c0 -11 3 -14 6 -6 3 7 2 16 -1 19 -3 4 -6 -2 -5 -13z"/>
<path d="M18971 16804 c0 -11 3 -14 6 -6 3 7 2 16 -1 19 -3 4 -6 -2 -5 -13z"/>
<path d="M4371 16794 c0 -11 3 -14 6 -6 3 7 2 16 -1 19 -3 4 -6 -2 -5 -13z"/>
<path d="M15682 16760 c-30 -46 -33 -61 -43 -168 -15 -179 -24 -234 -42 -276
-16 -37 -16 -43 2 -125 18 -79 42 -252 43 -311 0 -14 -5 -52 -11 -85 -7 -33
-15 -75 -18 -93 -3 -18 -9 -35 -15 -38 -19 -12 -57 26 -69 68 -43 156 -55 189
-85 228 -7 8 -35 74 -64 145 -80 199 -83 205 -90 205 -5 0 -34 -13 -66 -29
-123 -61 -185 -74 -365 -79 l-166 -4 -17 -121 c-71 -506 -286 -1004 -603
-1397 -191 -237 -473 -489 -704 -628 -59 -35 -78 -52 -79 -69 0 -12 -5 -25
-10 -28 -7 -4 -3 -19 10 -39 11 -19 20 -40 20 -48 0 -9 9 -27 21 -42 23 -29
24 -46 15 -201 -11 -173 -9 -168 -88 -251 -39 -41 -79 -74 -88 -74 -52 0 -226
-107 -343 -210 -4 -4 1 -28 13 -54 11 -26 20 -61 20 -77 0 -16 4 -29 9 -29 5
0 3 -17 -5 -37 -7 -21 -13 -50 -14 -65 0 -35 -19 -52 -77 -74 -83 -30 -133
-53 -134 -61 -1 -4 -2 -26 -3 -49 -3 -57 -47 -127 -110 -173 -29 -22 -69 -58
-88 -80 -40 -47 -132 -114 -198 -145 -25 -12 -56 -29 -70 -39 -13 -9 -43 -17
-65 -17 -23 0 -46 -5 -51 -10 -6 -6 -55 -12 -110 -14 -90 -3 -147 -12 -244
-37 -43 -10 -105 17 -158 70 -30 31 -32 35 -17 51 16 17 12 70 -4 70 -11 0
-61 79 -61 95 0 8 -21 31 -47 51 -84 66 -113 97 -113 120 0 12 -7 27 -15 34
-9 8 -15 30 -15 60 0 33 -5 50 -15 54 -11 4 -15 21 -15 67 0 62 0 63 -60 136
-6 7 -10 16 -10 21 0 5 -7 16 -16 23 -9 7 -20 22 -26 34 -21 45 -44 82 -70
109 -15 15 -33 41 -40 57 -7 16 -17 29 -22 29 -5 0 -6 16 -3 36 3 19 1 46 -5
60 -9 20 -8 31 10 62 11 21 26 68 32 106 11 71 31 112 58 121 18 5 52 58 52
80 0 9 -28 22 -72 35 -291 83 -557 204 -804 365 -64 42 -117 75 -119 73 -1 -2
-57 -84 -125 -183 -68 -99 -149 -205 -180 -237 -69 -69 -186 -146 -277 -183
-148 -59 -135 -58 -915 -62 l-718 -4 0 -59 c0 -55 -2 -60 -25 -66 -21 -5 -25
-12 -25 -41 0 -44 20 -82 64 -115 28 -22 37 -39 46 -83 24 -118 335 -512 626
-795 823 -799 1911 -1240 3059 -1240 1648 0 3160 926 3904 2390 280 550 427
1086 471 1710 11 153 9 205 -21 412 -5 37 -9 77 -9 89 l0 22 20 -24 21 -23 -5
39 c-3 22 -8 77 -11 123 -3 46 -12 111 -20 145 -7 34 -16 98 -20 142 -4 44
-25 149 -48 233 -36 138 -42 151 -53 131 -12 -22 -12 -22 -24 21 -31 121 -57
181 -110 251 -22 30 -40 57 -40 61 0 19 -18 4 -48 -42z m17 -993 c44 -102 55
-195 27 -233 -13 -17 -16 -17 -30 -4 -8 8 -18 38 -22 65 -3 28 -8 54 -11 58
-8 13 -12 100 -6 134 6 40 18 34 42 -20z m-1688 -2059 c13 -48 14 -64 11 -162
-2 -66 -3 -68 -26 -64 -21 4 -23 1 -23 -33 0 -26 -8 -47 -27 -69 -14 -17 -26
-44 -26 -59 0 -15 -15 -49 -35 -77 -19 -27 -35 -53 -35 -59 0 -21 -58 -131
-79 -149 -11 -11 -21 -27 -21 -37 0 -10 -4 -20 -9 -23 -4 -3 -21 -31 -37 -62
-34 -67 -66 -96 -136 -122 -60 -22 -109 -19 -134 9 -15 17 -16 24 -4 60 11 33
11 45 1 61 -23 37 3 111 61 169 27 27 48 58 47 67 -8 83 -2 150 19 184 12 19
22 43 22 52 0 9 7 16 16 16 9 0 28 8 42 19 15 10 39 21 55 25 36 9 106 57 107
74 0 7 4 11 9 8 12 -8 31 17 46 61 9 26 21 40 37 43 15 4 27 17 33 37 12 37
43 73 61 73 7 0 18 -19 25 -42z"/>
<path d="M18691 16764 c0 -11 3 -14 6 -6 3 7 2 16 -1 19 -3 4 -6 -2 -5 -13z"/>
<path d="M4361 16744 c0 -11 3 -14 6 -6 3 7 2 16 -1 19 -3 4 -6 -2 -5 -13z"/>
<path d="M18981 16744 c0 -11 3 -14 6 -6 3 7 2 16 -1 19 -3 4 -6 -2 -5 -13z"/>
<path d="M18701 16714 c0 -11 3 -14 6 -6 3 7 2 16 -1 19 -3 4 -6 -2 -5 -13z"/>
<path d="M4641 16704 c0 -11 3 -14 6 -6 3 7 2 16 -1 19 -3 4 -6 -2 -5 -13z"/>
<path d="M4350 16682 l0 -22 -1903 0 c-2109 0 -1949 5 -2097 -67 -89 -43 -208
-156 -257 -243 -41 -72 -71 -167 -79 -246 l-7 -64 2132 0 2131 0 2 -42 c1 -39
1 -40 5 -8 1 19 10 112 19 205 9 94 27 244 40 334 13 91 21 167 19 170 -3 2
-5 -5 -5 -17z"/>
<path d="M18991 16684 c0 -11 3 -14 6 -6 3 7 2 16 -1 19 -3 4 -6 -2 -5 -13z"/>
<path d="M18711 16654 c0 -11 3 -14 6 -6 3 7 2 16 -1 19 -3 4 -6 -2 -5 -13z"/>
<path d="M4631 16644 c0 -11 3 -14 6 -6 3 7 2 16 -1 19 -3 4 -6 -2 -5 -13z"/>
<path d="M19000 16653 c0 -4 9 -75 21 -158 12 -82 29 -233 39 -335 10 -102 18
-170 19 -152 l1 32 2131 0 2131 0 -6 48 c-20 146 -74 273 -155 363 -66 74
-168 143 -261 177 l-75 27 -1922 3 c-1058 1 -1923 -1 -1923 -5z"/>
<path d="M18721 16594 c0 -11 3 -14 6 -6 3 7 2 16 -1 19 -3 4 -6 -2 -5 -13z"/>
<path d="M4621 16584 c0 -11 3 -14 6 -6 3 7 2 16 -1 19 -3 4 -6 -2 -5 -13z"/>
<path d="M18731 16524 c0 -11 3 -14 6 -6 3 7 2 16 -1 19 -3 4 -6 -2 -5 -13z"/>
<path d="M4611 16514 c0 -11 3 -14 6 -6 3 7 2 16 -1 19 -3 4 -6 -2 -5 -13z"/>
<path d="M18741 16454 c0 -11 3 -14 6 -6 3 7 2 16 -1 19 -3 4 -6 -2 -5 -13z"/>
<path d="M4601 16444 c0 -11 3 -14 6 -6 3 7 2 16 -1 19 -3 4 -6 -2 -5 -13z"/>
<path d="M18752 16380 c0 -14 2 -19 5 -12 2 6 2 18 0 25 -3 6 -5 1 -5 -13z"/>
<path d="M4592 16370 c0 -14 2 -19 5 -12 2 6 2 18 0 25 -3 6 -5 1 -5 -13z"/>
<path d="M18762 16300 c0 -14 2 -19 5 -12 2 6 2 18 0 25 -3 6 -5 1 -5 -13z"/>
<path d="M4582 16285 c0 -16 2 -22 5 -12 2 9 2 23 0 30 -3 6 -5 -1 -5 -18z"/>
<path d="M18772 16205 c0 -16 2 -22 5 -12 2 9 2 23 0 30 -3 6 -5 -1 -5 -18z"/>
<path d="M4572 16195 c0 -16 2 -22 5 -12 2 9 2 23 0 30 -3 6 -5 -1 -5 -18z"/>
<path d="M18782 16100 c0 -19 2 -27 5 -17 2 9 2 25 0 35 -3 9 -5 1 -5 -18z"/>
<path d="M4562 16085 c0 -16 2 -22 5 -12 2 9 2 23 0 30 -3 6 -5 -1 -5 -18z"/>
<path d="M18793 15975 c0 -22 2 -30 4 -17 2 12 2 30 0 40 -3 9 -5 -1 -4 -23z"/>
<path d="M4553 15955 c0 -22 2 -30 4 -17 2 12 2 30 0 40 -3 9 -5 -1 -4 -23z"/>
<path d="M19083 15850 c0 -30 2 -43 4 -27 2 15 2 39 0 55 -2 15 -4 2 -4 -28z"/>
<path d="M4263 15825 c0 -33 2 -45 4 -27 2 18 2 45 0 60 -2 15 -4 0 -4 -33z"/>
<path d="M18803 15795 c0 -33 2 -45 4 -27 2 18 2 45 0 60 -2 15 -4 0 -4 -33z"/>
<path d="M4543 15770 c0 -36 2 -50 4 -32 2 17 2 47 0 65 -2 17 -4 3 -4 -33z"/>
<path d="M19091 15435 c0 -121 -4 -271 -8 -332 l-6 -113 1781 0 1782 0 0 43
c0 23 -7 70 -15 102 -48 183 -163 329 -326 410 -136 69 -27 65 -1692 65
l-1506 0 -4 23 c-2 12 -5 -77 -6 -198z"/>
<path d="M2720 15610 l-1535 -5 -77 -31 c-228 -93 -374 -286 -403 -531 l-6
-53 1785 0 1785 0 -6 313 c-3 171 -6 312 -7 312 0 0 -692 -2 -1536 -5z"/>
<path d="M18813 15470 c0 -36 2 -50 4 -32 2 17 2 47 0 65 -2 17 -4 3 -4 -33z"/>
<path d="M4543 15170 c0 -36 2 -50 4 -32 2 17 2 47 0 65 -2 17 -4 3 -4 -33z"/>
<path d="M18803 15135 c0 -33 2 -45 4 -27 2 18 2 45 0 60 -2 15 -4 0 -4 -33z"/>
<path d="M4553 14975 c0 -22 2 -30 4 -17 2 12 2 30 0 40 -3 9 -5 -1 -4 -23z"/>
<path d="M18793 14955 c0 -22 2 -30 4 -17 2 12 2 30 0 40 -3 9 -5 -1 -4 -23z"/>
<path d="M4273 14935 c0 -22 2 -30 4 -17 2 12 2 30 0 40 -3 9 -5 -1 -4 -23z"/>
<path d="M19073 14915 c0 -22 2 -30 4 -17 2 12 2 30 0 40 -3 9 -5 -1 -4 -23z"/>
<path d="M4562 14850 c0 -19 2 -27 5 -17 2 9 2 25 0 35 -3 9 -5 1 -5 -18z"/>
<path d="M18782 14830 c0 -19 2 -27 5 -17 2 9 2 25 0 35 -3 9 -5 1 -5 -18z"/>
<path d="M4282 14810 c0 -19 2 -27 5 -17 2 9 2 25 0 35 -3 9 -5 1 -5 -18z"/>
<path d="M19062 14795 c0 -16 2 -22 5 -12 2 9 2 23 0 30 -3 6 -5 -1 -5 -18z"/>
<path d="M4572 14745 c0 -16 2 -22 5 -12 2 9 2 23 0 30 -3 6 -5 -1 -5 -18z"/>
<path d="M18772 14725 c0 -16 2 -22 5 -12 2 9 2 23 0 30 -3 6 -5 -1 -5 -18z"/>
<path d="M4292 14705 c0 -16 2 -22 5 -12 2 9 2 23 0 30 -3 6 -5 -1 -5 -18z"/>
<path d="M19052 14695 c0 -16 2 -22 5 -12 2 9 2 23 0 30 -3 6 -5 -1 -5 -18z"/>
<path d="M4582 14650 c0 -14 2 -19 5 -12 2 6 2 18 0 25 -3 6 -5 1 -5 -13z"/>
<path d="M18762 14640 c0 -14 2 -19 5 -12 2 6 2 18 0 25 -3 6 -5 1 -5 -13z"/>
<path d="M4302 14615 c0 -16 2 -22 5 -12 2 9 2 23 0 30 -3 6 -5 -1 -5 -18z"/>
<path d="M19042 14600 c0 -14 2 -19 5 -12 2 6 2 18 0 25 -3 6 -5 1 -5 -13z"/>
<path d="M4592 14570 c0 -14 2 -19 5 -12 2 6 2 18 0 25 -3 6 -5 1 -5 -13z"/>
<path d="M18752 14560 c0 -14 2 -19 5 -12 2 6 2 18 0 25 -3 6 -5 1 -5 -13z"/>
<path d="M1880 14560 c-181 -24 -347 -127 -446 -278 -45 -68 -90 -194 -100
-279 l-7 -63 1541 0 c1222 0 1542 -3 1546 -12 3 -7 4 -2 2 12 -3 14 -17 90
-31 170 -15 80 -37 215 -49 300 l-23 155 -1189 1 c-654 1 -1214 -2 -1244 -6z"/>
<path d="M19036 14548 c-3 -13 -10 -63 -17 -113 -9 -76 -67 -414 -84 -495 -3
-14 -3 -19 1 -12 4 9 323 12 1545 12 l1539 0 -6 48 c-33 271 -192 468 -449
554 l-70 23 -1227 3 -1227 3 -5 -23z"/>
<path d="M4602 14490 c0 -14 2 -19 5 -12 2 6 2 18 0 25 -3 6 -5 1 -5 -13z"/>
<path d="M18742 14480 c0 -14 2 -19 5 -12 2 6 2 18 0 25 -3 6 -5 1 -5 -13z"/>
<path d="M4612 14420 c0 -14 2 -19 5 -12 2 6 2 18 0 25 -3 6 -5 1 -5 -13z"/>
<path d="M18732 14410 c0 -14 2 -19 5 -12 2 6 2 18 0 25 -3 6 -5 1 -5 -13z"/>
<path d="M4621 14354 c0 -11 3 -14 6 -6 3 7 2 16 -1 19 -3 4 -6 -2 -5 -13z"/>
<path d="M18721 14344 c0 -11 3 -14 6 -6 3 7 2 16 -1 19 -3 4 -6 -2 -5 -13z"/>
<path d="M4631 14294 c0 -11 3 -14 6 -6 3 7 2 16 -1 19 -3 4 -6 -2 -5 -13z"/>
<path d="M18711 14284 c0 -11 3 -14 6 -6 3 7 2 16 -1 19 -3 4 -6 -2 -5 -13z"/>
<path d="M4641 14234 c0 -11 3 -14 6 -6 3 7 2 16 -1 19 -3 4 -6 -2 -5 -13z"/>
<path d="M18701 14224 c0 -11 3 -14 6 -6 3 7 2 16 -1 19 -3 4 -6 -2 -5 -13z"/>
<path d="M4651 14174 c0 -11 3 -14 6 -6 3 7 2 16 -1 19 -3 4 -6 -2 -5 -13z"/>
<path d="M4661 14124 c0 -11 3 -14 6 -6 3 7 2 16 -1 19 -3 4 -6 -2 -5 -13z"/>
<path d="M18681 14114 c0 -11 3 -14 6 -6 3 7 2 16 -1 19 -3 4 -6 -2 -5 -13z"/>
<path d="M4671 14074 c0 -11 3 -14 6 -6 3 7 2 16 -1 19 -3 4 -6 -2 -5 -13z"/>
<path d="M18671 14064 c0 -11 3 -14 6 -6 3 7 2 16 -1 19 -3 4 -6 -2 -5 -13z"/>
<path d="M4681 14024 c0 -11 3 -14 6 -6 3 7 2 16 -1 19 -3 4 -6 -2 -5 -13z"/>
<path d="M18661 14014 c0 -11 3 -14 6 -6 3 7 2 16 -1 19 -3 4 -6 -2 -5 -13z"/>
<path d="M4691 13974 c0 -11 3 -14 6 -6 3 7 2 16 -1 19 -3 4 -6 -2 -5 -13z"/>
<path d="M4711 13884 c0 -11 3 -14 6 -6 3 7 2 16 -1 19 -3 4 -6 -2 -5 -13z"/>
<path d="M4431 13844 c0 -11 3 -14 6 -6 3 7 2 16 -1 19 -3 4 -6 -2 -5 -13z"/>
<path d="M18621 13834 c0 -11 3 -14 6 -6 3 7 2 16 -1 19 -3 4 -6 -2 -5 -13z"/>
<path d="M12855 13772 c-3 -16 -1 -41 5 -56 8 -22 6 -32 -10 -54 -18 -25 -18
-31 -5 -85 15 -67 13 -62 41 -71 21 -6 21 -6 9 48 -7 30 -16 59 -19 64 -3 5 1
27 10 47 12 30 13 43 4 65 -6 15 -10 31 -9 36 7 40 -17 46 -26 6z"/>
<path d="M4461 13714 c0 -11 3 -14 6 -6 3 7 2 16 -1 19 -3 4 -6 -2 -5 -13z"/>
<path d="M3585 13520 c-842 -5 -936 -7 -988 -23 -180 -53 -321 -167 -399 -321
-34 -67 -68 -191 -68 -248 l0 -38 1213 2 1212 3 70 24 c39 14 71 25 72 26 1 0
-22 73 -52 160 -29 88 -70 219 -90 290 -21 72 -38 130 -39 130 0 0 -419 -2
-931 -5z"/>
<path d="M18790 13373 c-35 -122 -109 -348 -135 -414 -5 -12 10 -21 67 -40
l73 -24 1213 -3 1212 -2 0 27 c-1 60 -32 172 -70 252 -72 151 -224 276 -395
327 -55 17 -131 18 -991 21 l-931 4 -43 -148z"/>
<path d="M12556 13371 c-17 -6 -17 -8 -4 -14 10 -3 19 0 22 9 3 8 4 14 3 13
-1 0 -11 -4 -21 -8z"/>
<path d="M12308 13279 c-21 -11 -38 -22 -38 -24 0 -3 13 1 30 10 16 8 38 15
50 15 11 0 20 5 20 10 0 15 -21 11 -62 -11z"/>
<path d="M12080 13016 c0 -2 7 -9 15 -16 12 -10 15 -10 15 4 0 9 -7 16 -15 16
-8 0 -15 -2 -15 -4z"/>
<path d="M18406 12355 c-9 -26 -7 -32 5 -12 6 10 9 21 6 23 -2 3 -7 -2 -11
-11z"/>
<path d="M4950 12325 c0 -5 5 -17 10 -25 5 -8 10 -10 10 -5 0 6 -5 17 -10 25
-5 8 -10 11 -10 5z"/>
<path d="M5350 12150 c6 -11 13 -20 16 -20 2 0 0 9 -6 20 -6 11 -13 20 -16 20
-2 0 0 -9 6 -20z"/>
<path d="M17970 12110 c-6 -11 -8 -20 -6 -20 3 0 10 9 16 20 6 11 8 20 6 20
-3 0 -10 -9 -16 -20z"/>
<path d="M5420 12020 c6 -11 13 -20 16 -20 2 0 0 9 -6 20 -6 11 -13 20 -16 20
-2 0 0 -9 6 -20z"/>
<path d="M5110 12000 c6 -11 13 -20 16 -20 2 0 0 9 -6 20 -6 11 -13 20 -16 20
-2 0 0 -9 6 -20z"/>
<path d="M17910 12000 c-6 -11 -8 -20 -6 -20 3 0 10 9 16 20 6 11 8 20 6 20
-3 0 -10 -9 -16 -20z"/>
<path d="M18210 11960 c-6 -11 -8 -20 -6 -20 3 0 10 9 16 20 6 11 8 20 6 20
-3 0 -10 -9 -16 -20z"/>
<path d="M17830 11860 c-6 -11 -8 -20 -6 -20 3 0 10 9 16 20 6 11 8 20 6 20
-3 0 -10 -9 -16 -20z"/>
<path d="M5220 11800 c6 -11 13 -20 16 -20 2 0 0 9 -6 20 -6 11 -13 20 -16 20
-2 0 0 -9 6 -20z"/>
<path d="M18110 11780 c-6 -11 -8 -20 -6 -20 3 0 10 9 16 20 6 11 8 20 6 20
-3 0 -10 -9 -16 -20z"/>
<path d="M17770 11760 c-6 -11 -8 -20 -6 -20 3 0 10 9 16 20 6 11 8 20 6 20
-3 0 -10 -9 -16 -20z"/>
<path d="M5260 11730 c6 -11 13 -20 16 -20 2 0 0 9 -6 20 -6 11 -13 20 -16 20
-2 0 0 -9 6 -20z"/>
<path d="M5290 11680 c6 -11 13 -20 16 -20 2 0 0 9 -6 20 -6 11 -13 20 -16 20
-2 0 0 -9 6 -20z"/>
<path d="M5320 11630 c6 -11 13 -20 16 -20 2 0 0 9 -6 20 -6 11 -13 20 -16 20
-2 0 0 -9 6 -20z"/>
<path d="M17674 11608 c-4 -7 -14 -24 -22 -38 -14 -24 -13 -24 3 -5 20 24 37
55 31 55 -3 0 -8 -6 -12 -12z"/>
<path d="M5350 11580 c6 -11 13 -20 16 -20 2 0 0 9 -6 20 -6 11 -13 20 -16 20
-2 0 0 -9 6 -20z"/>
<path d="M17960 11530 c-6 -11 -8 -20 -6 -20 3 0 10 9 16 20 6 11 8 20 6 20
-3 0 -10 -9 -16 -20z"/>
<path d="M5730 11511 c5 -11 15 -23 21 -27 6 -3 3 5 -6 20 -20 30 -30 35 -15
7z"/>
<path d="M5400 11500 c6 -11 13 -20 16 -20 2 0 0 9 -6 20 -6 11 -13 20 -16 20
-2 0 0 -9 6 -20z"/>
<path d="M17560 11435 c-17 -25 -29 -45 -26 -45 3 0 19 20 36 45 17 25 29 45
26 45 -3 0 -19 -20 -36 -45z"/>
<path d="M17846 11353 c-20 -32 -27 -46 -14 -31 26 30 62 88 55 88 -2 0 -21
-26 -41 -57z"/>
<path d="M5820 11376 c0 -2 8 -10 18 -17 15 -13 16 -12 3 4 -13 16 -21 21 -21
13z"/>
<path d="M17489 11333 c-13 -16 -12 -17 4 -4 9 7 17 15 17 17 0 8 -8 3 -21
-13z"/>
<path d="M5870 11306 c0 -2 8 -10 18 -17 15 -13 16 -12 3 4 -13 16 -21 21 -21
13z"/>
<path d="M17439 11263 c-13 -16 -12 -17 4 -4 16 13 21 21 13 21 -2 0 -10 -8
-17 -17z"/>
<path d="M5580 11230 c12 -16 24 -30 26 -30 3 0 -4 14 -16 30 -12 17 -24 30
-26 30 -3 0 4 -13 16 -30z"/>
<path d="M5920 11236 c0 -2 8 -10 18 -17 15 -13 16 -12 3 4 -13 16 -21 21 -21
13z"/>
<path d="M17409 11223 c-13 -16 -12 -17 4 -4 9 7 17 15 17 17 0 8 -8 3 -21
-13z"/>
<path d="M17740 11200 c-12 -16 -19 -30 -16 -30 2 0 14 14 26 30 12 17 19 30
16 30 -2 0 -14 -13 -26 -30z"/>
<path d="M5950 11196 c0 -2 8 -10 18 -17 15 -13 16 -12 3 4 -13 16 -21 21 -21
13z"/>
<path d="M17379 11183 c-13 -16 -12 -17 4 -4 9 7 17 15 17 17 0 8 -8 3 -21
-13z"/>
<path d="M5630 11156 c0 -2 8 -10 18 -17 15 -13 16 -12 3 4 -13 16 -21 21 -21
13z"/>
<path d="M5995 11140 c10 -11 20 -20 23 -20 3 0 -3 9 -13 20 -10 11 -20 20
-23 20 -3 0 3 -9 13 -20z"/>
<path d="M17349 11143 c-13 -16 -12 -17 4 -4 9 7 17 15 17 17 0 8 -8 3 -21
-13z"/>
<path d="M17679 11113 c-13 -16 -12 -17 4 -4 16 13 21 21 13 21 -2 0 -10 -8
-17 -17z"/>
<path d="M5680 11090 c12 -16 24 -30 26 -30 3 0 -4 14 -16 30 -12 17 -24 30
-26 30 -3 0 4 -13 16 -30z"/>
<path d="M17319 11103 c-13 -16 -12 -17 4 -4 9 7 17 15 17 17 0 8 -8 3 -21
-13z"/>
<path d="M6020 11106 c0 -2 8 -10 18 -17 15 -13 16 -12 3 4 -13 16 -21 21 -21
13z"/>
<path d="M17649 11073 c-13 -16 -12 -17 4 -4 16 13 21 21 13 21 -2 0 -10 -8
-17 -17z"/>
<path d="M6065 11050 c10 -11 20 -20 23 -20 3 0 -3 9 -13 20 -10 11 -20 20
-23 20 -3 0 3 -9 13 -20z"/>
<path d="M17279 11053 c-13 -16 -12 -17 4 -4 16 13 21 21 13 21 -2 0 -10 -8
-17 -17z"/>
<path d="M5710 11046 c0 -2 8 -10 18 -17 15 -13 16 -12 3 4 -13 16 -21 21 -21
13z"/>
<path d="M17619 11033 c-13 -16 -12 -17 4 -4 9 7 17 15 17 17 0 8 -8 3 -21
-13z"/>
<path d="M17244 11008 l-19 -23 23 19 c21 18 27 26 19 26 -2 0 -12 -10 -23
-22z"/>
<path d="M6105 11000 c10 -11 20 -20 23 -20 3 0 -3 9 -13 20 -10 11 -20 20
-23 20 -3 0 3 -9 13 -20z"/>
<path d="M5740 11006 c0 -2 8 -10 18 -17 15 -13 16 -12 3 4 -13 16 -21 21 -21
13z"/>
<path d="M17589 10993 c-13 -16 -12 -17 4 -4 16 13 21 21 13 21 -2 0 -10 -8
-17 -17z"/>
<path d="M17204 10958 l-19 -23 23 19 c12 11 22 21 22 23 0 8 -8 2 -26 -19z"/>
<path d="M5785 10950 c10 -11 20 -20 23 -20 3 0 -3 9 -13 20 -10 11 -20 20
-23 20 -3 0 3 -9 13 -20z"/>
<path d="M6145 10950 c10 -11 20 -20 23 -20 3 0 -3 9 -13 20 -10 11 -20 20
-23 20 -3 0 3 -9 13 -20z"/>
<path d="M17559 10953 c-13 -16 -12 -17 4 -4 9 7 17 15 17 17 0 8 -8 3 -21
-13z"/>
<path d="M17524 10908 l-19 -23 23 19 c21 18 27 26 19 26 -2 0 -12 -10 -23
-22z"/>
<path d="M5810 10916 c0 -2 8 -10 18 -17 15 -13 16 -12 3 4 -13 16 -21 21 -21
13z"/>
<path d="M17154 10898 l-19 -23 23 19 c21 18 27 26 19 26 -2 0 -12 -10 -23
-22z"/>
<path d="M6195 10890 c10 -11 20 -20 23 -20 3 0 -3 9 -13 20 -10 11 -20 20
-23 20 -3 0 3 -9 13 -20z"/>
<path d="M5855 10860 c10 -11 20 -20 23 -20 3 0 -3 9 -13 20 -10 11 -20 20
-23 20 -3 0 3 -9 13 -20z"/>
<path d="M17489 10863 c-13 -16 -12 -17 4 -4 9 7 17 15 17 17 0 8 -8 3 -21
-13z"/>
<path d="M17099 10833 l-24 -28 28 24 c25 23 32 31 24 31 -2 0 -14 -12 -28
-27z"/>
<path d="M6250 10825 c13 -14 26 -25 28 -25 3 0 -5 11 -18 25 -13 14 -26 25
-28 25 -3 0 5 -11 18 -25z"/>
<path d="M5895 10810 c10 -11 20 -20 23 -20 3 0 -3 9 -13 20 -10 11 -20 20
-23 20 -3 0 3 -9 13 -20z"/>
<path d="M17449 10813 c-13 -16 -12 -17 4 -4 16 13 21 21 13 21 -2 0 -10 -8
-17 -17z"/>
<path d="M17034 10758 l-29 -33 33 29 c17 17 32 31 32 33 0 8 -8 1 -36 -29z"/>
<path d="M5940 10755 c13 -14 26 -25 28 -25 3 0 -5 11 -18 25 -13 14 -26 25
-28 25 -3 0 5 -11 18 -25z"/>
<path d="M6290 10777 c0 -2 15 -16 33 -33 l32 -29 -29 33 c-28 30 -36 37 -36
29z"/>
<path d="M17404 10758 l-19 -23 23 19 c21 18 27 26 19 26 -2 0 -12 -10 -23
-22z"/>
<path d="M17359 10703 l-24 -28 28 24 c15 14 27 26 27 28 0 8 -8 1 -31 -24z"/>
<path d="M5990 10695 c13 -14 26 -25 28 -25 3 0 -5 11 -18 25 -13 14 -26 25
-28 25 -3 0 5 -11 18 -25z"/>
<path d="M16945 10658 l-40 -43 43 40 c39 36 47 45 39 45 -2 0 -21 -19 -42
-42z"/>
<path d="M6405 10650 c21 -22 41 -40 44 -40 3 0 -13 18 -34 40 -21 22 -41 40
-44 40 -3 0 13 -18 34 -40z"/>
<path d="M17299 10633 l-24 -28 28 24 c15 14 27 26 27 28 0 8 -8 1 -31 -24z"/>
<path d="M6050 10625 c13 -14 26 -25 28 -25 3 0 -5 11 -18 25 -13 14 -26 25
-28 25 -3 0 5 -11 18 -25z"/>
<path d="M17234 10558 l-29 -33 33 29 c17 17 32 31 32 33 0 8 -8 1 -36 -29z"/>
<path d="M6090 10577 c0 -2 15 -16 33 -33 l32 -29 -29 33 c-28 30 -36 37 -36
29z"/>
<path d="M16715 10418 l-160 -163 163 160 c89 88 162 161 162 162 0 8 -17 -9
-165 -159z"/>
<path d="M6625 10420 c77 -77 142 -140 145 -140 2 0 -58 63 -135 140 -77 77
-142 140 -145 140 -2 0 58 -63 135 -140z"/>
<path d="M17140 10455 c-24 -25 -42 -45 -39 -45 3 0 25 20 49 45 24 25 42 45
39 45 -3 0 -25 -20 -49 -45z"/>
<path d="M6210 10448 c41 -45 50 -53 50 -45 0 2 -21 23 -47 47 l-48 45 45 -47z"/>
<path d="M16920 10223 l-145 -148 148 145 c137 134 152 150 144 150 -1 0 -67
-66 -147 -147z"/>
<path d="M6425 10220 c66 -66 122 -120 125 -120 2 0 -49 54 -115 120 -66 66
-122 120 -125 120 -2 0 49 -54 115 -120z"/>
<path d="M6855 10200 c21 -22 41 -40 44 -40 3 0 -13 18 -34 40 -21 22 -41 40
-44 40 -3 0 13 -18 34 -40z"/>
<path d="M16475 10188 l-40 -43 43 40 c39 36 47 45 39 45 -2 0 -21 -19 -42
-42z"/>
<path d="M6930 10137 c0 -2 15 -16 33 -33 l32 -29 -29 33 c-28 30 -36 37 -36
29z"/>
<path d="M16374 10098 l-29 -33 33 29 c30 28 37 36 29 36 -2 0 -16 -15 -33
-32z"/>
<path d="M7030 10045 c13 -14 26 -25 28 -25 3 0 -5 11 -18 25 -13 14 -26 25
-28 25 -3 0 5 -11 18 -25z"/>
<path d="M6645 10010 c27 -27 51 -50 54 -50 3 0 -17 23 -44 50 -27 28 -51 50
-54 50 -3 0 17 -22 44 -50z"/>
<path d="M16299 10033 l-24 -28 28 24 c15 14 27 26 27 28 0 8 -8 1 -31 -24z"/>
<path d="M16680 9995 c-24 -25 -42 -45 -39 -45 3 0 25 20 49 45 24 25 42 45
39 45 -3 0 -25 -20 -49 -45z"/>
<path d="M7095 9990 c10 -11 20 -20 23 -20 3 0 -3 9 -13 20 -10 11 -20 20 -23
20 -3 0 3 -9 13 -20z"/>
<path d="M16239 9983 l-24 -28 28 24 c25 23 32 31 24 31 -2 0 -14 -12 -28 -27z"/>
<path d="M7155 9940 c10 -11 20 -20 23 -20 3 0 -3 9 -13 20 -10 11 -20 20 -23
20 -3 0 3 -9 13 -20z"/>
<path d="M16184 9938 l-19 -23 23 19 c21 18 27 26 19 26 -2 0 -12 -10 -23 -22z"/>
<path d="M6750 9915 c19 -19 36 -35 39 -35 3 0 -10 16 -29 35 -19 19 -36 35
-39 35 -3 0 10 -16 29 -35z"/>
<path d="M16579 9903 l-34 -38 38 34 c20 19 37 36 37 38 0 8 -8 0 -41 -34z"/>
<path d="M7205 9900 c10 -11 20 -20 23 -20 3 0 -3 9 -13 20 -10 11 -20 20 -23
20 -3 0 3 -9 13 -20z"/>
<path d="M16129 9893 c-13 -16 -12 -17 4 -4 9 7 17 15 17 17 0 8 -8 3 -21 -13z"/>
<path d="M7255 9860 c10 -11 20 -20 23 -20 3 0 -3 9 -13 20 -10 11 -20 20 -23
20 -3 0 3 -9 13 -20z"/>
<path d="M6830 9845 c13 -14 26 -25 28 -25 3 0 -5 11 -18 25 -13 14 -26 25
-28 25 -3 0 5 -11 18 -25z"/>
<path d="M16079 9853 c-13 -16 -12 -17 4 -4 9 7 17 15 17 17 0 8 -8 3 -21 -13z"/>
<path d="M16499 9833 l-24 -28 28 24 c25 23 32 31 24 31 -2 0 -14 -12 -28 -27z"/>
<path d="M7290 9836 c0 -2 8 -10 18 -17 15 -13 16 -12 3 4 -13 16 -21 21 -21
13z"/>
<path d="M16034 9818 l-19 -23 23 19 c21 18 27 26 19 26 -2 0 -12 -10 -23 -22z"/>
<path d="M6900 9785 c13 -14 26 -25 28 -25 3 0 -5 11 -18 25 -13 14 -26 25
-28 25 -3 0 5 -11 18 -25z"/>
<path d="M7330 9806 c0 -2 8 -10 18 -17 15 -13 16 -12 3 4 -13 16 -21 21 -21
13z"/>
<path d="M15989 9783 c-13 -16 -12 -17 4 -4 9 7 17 15 17 17 0 8 -8 3 -21 -13z"/>
<path d="M16434 9778 l-19 -23 23 19 c21 18 27 26 19 26 -2 0 -12 -10 -23 -22z"/>
<path d="M7380 9766 c0 -2 8 -10 18 -17 15 -13 16 -12 3 4 -13 16 -21 21 -21
13z"/>
<path d="M15949 9753 c-13 -16 -12 -17 4 -4 9 7 17 15 17 17 0 8 -8 3 -21 -13z"/>
<path d="M6955 9740 c10 -11 20 -20 23 -20 3 0 -3 9 -13 20 -10 11 -20 20 -23
20 -3 0 3 -9 13 -20z"/>
<path d="M16374 9728 l-19 -23 23 19 c21 18 27 26 19 26 -2 0 -12 -10 -23 -22z"/>
<path d="M15909 9723 c-13 -16 -12 -17 4 -4 9 7 17 15 17 17 0 8 -8 3 -21 -13z"/>
<path d="M7450 9716 c0 -2 8 -10 18 -17 15 -13 16 -12 3 4 -13 16 -21 21 -21
13z"/>
<path d="M7015 9690 c10 -11 20 -20 23 -20 3 0 -3 9 -13 20 -10 11 -20 20 -23
20 -3 0 3 -9 13 -20z"/>
<path d="M16324 9688 l-19 -23 23 19 c21 18 27 26 19 26 -2 0 -12 -10 -23 -22z"/>
<path d="M7490 9686 c0 -2 8 -10 18 -17 15 -13 16 -12 3 4 -13 16 -21 21 -21
13z"/>
<path d="M15839 9673 c-13 -16 -12 -17 4 -4 9 7 17 15 17 17 0 8 -8 3 -21 -13z"/>
<path d="M7065 9650 c10 -11 20 -20 23 -20 3 0 -3 9 -13 20 -10 11 -20 20 -23
20 -3 0 3 -9 13 -20z"/>
<path d="M16274 9648 l-19 -23 23 19 c21 18 27 26 19 26 -2 0 -12 -10 -23 -22z"/>
<path d="M15785 9634 l-30 -26 33 22 c17 12 32 23 32 26 0 7 -4 5 -35 -22z"/>
<path d="M7560 9636 c0 -2 14 -14 30 -26 17 -12 30 -19 30 -16 0 2 -13 14 -30
26 -16 12 -30 19 -30 16z"/>
<path d="M7100 9626 c0 -2 8 -10 18 -17 15 -13 16 -12 3 4 -13 16 -21 21 -21
13z"/>
<path d="M16224 9608 l-19 -23 23 19 c21 18 27 26 19 26 -2 0 -12 -10 -23 -22z"/>
<path d="M7140 9596 c0 -2 8 -10 18 -17 15 -13 16 -12 3 4 -13 16 -21 21 -21
13z"/>
<path d="M16179 9573 c-13 -16 -12 -17 4 -4 9 7 17 15 17 17 0 8 -8 3 -21 -13z"/>
<path d="M15637 9536 c-59 -41 -73 -55 -29 -30 33 19 91 63 82 63 -3 0 -27
-15 -53 -33z"/>
<path d="M7190 9556 c0 -2 8 -10 18 -17 15 -13 16 -12 3 4 -13 16 -21 21 -21
13z"/>
<path d="M16139 9543 c-13 -16 -12 -17 4 -4 9 7 17 15 17 17 0 8 -8 3 -21 -13z"/>
<path d="M7230 9526 c0 -2 8 -10 18 -17 15 -13 16 -12 3 4 -13 16 -21 21 -21
13z"/>
<path d="M16099 9513 c-13 -16 -12 -17 4 -4 9 7 17 15 17 17 0 8 -8 3 -21 -13z"/>
<path d="M16059 9483 c-13 -16 -12 -17 4 -4 16 13 21 21 13 21 -2 0 -10 -8
-17 -17z"/>
<path d="M7300 9476 c0 -2 8 -10 18 -17 15 -13 16 -12 3 4 -13 16 -21 21 -21
13z"/>
<path d="M7340 9446 c0 -2 8 -10 18 -17 15 -13 16 -12 3 4 -13 16 -21 21 -21
13z"/>
<path d="M7840 9446 c0 -3 9 -10 20 -16 11 -6 20 -8 20 -6 0 3 -9 10 -20 16
-11 6 -20 8 -20 6z"/>
<path d="M15989 9433 c-13 -16 -12 -17 4 -4 9 7 17 15 17 17 0 8 -8 3 -21 -13z"/>
<path d="M15454 9414 c-18 -14 -18 -15 4 -4 12 6 22 13 22 15 0 8 -5 6 -26
-11z"/>
<path d="M7920 9396 c0 -3 9 -10 20 -16 11 -6 20 -8 20 -6 0 3 -9 10 -20 16
-11 6 -20 8 -20 6z"/>
<path d="M15919 9383 c-13 -16 -12 -17 4 -4 9 7 17 15 17 17 0 8 -8 3 -21 -13z"/>
<path d="M7440 9376 c0 -2 8 -10 18 -17 15 -13 16 -12 3 4 -13 16 -21 21 -21
13z"/>
<path d="M8070 9306 c0 -3 9 -10 20 -16 11 -6 20 -8 20 -6 0 3 -9 10 -20 16
-11 6 -20 8 -20 6z"/>
<path d="M8140 9266 c0 -3 9 -10 20 -16 11 -6 20 -8 20 -6 0 3 -9 10 -20 16
-11 6 -20 8 -20 6z"/>
<path d="M7660 9226 c0 -3 9 -10 20 -16 11 -6 20 -8 20 -6 0 3 -9 10 -20 16
-11 6 -20 8 -20 6z"/>
<path d="M15114 9214 c-18 -14 -18 -15 4 -4 12 6 22 13 22 15 0 8 -5 6 -26
-11z"/>
<path d="M8230 9216 c0 -3 9 -10 20 -16 11 -6 20 -8 20 -6 0 3 -9 10 -20 16
-11 6 -20 8 -20 6z"/>
<path d="M15634 9194 c-18 -14 -18 -15 4 -4 12 6 22 13 22 15 0 8 -5 6 -26
-11z"/>
<path d="M14984 9144 c-18 -14 -18 -15 4 -4 12 6 22 13 22 15 0 8 -5 6 -26
-11z"/>
<path d="M15554 9144 c-18 -14 -18 -15 4 -4 12 6 22 13 22 15 0 8 -5 6 -26
-11z"/>
<path d="M8360 9146 c0 -3 14 -12 30 -21 17 -9 30 -13 30 -11 0 3 -13 12 -30
21 -16 9 -30 13 -30 11z"/>
<path d="M7820 9126 c0 -3 9 -10 20 -16 11 -6 20 -8 20 -6 0 3 -9 10 -20 16
-11 6 -20 8 -20 6z"/>
<path d="M15504 9114 c-18 -14 -18 -15 4 -4 12 6 22 13 22 15 0 8 -5 6 -26
-11z"/>
<path d="M15454 9084 c-18 -14 -18 -15 4 -4 12 6 22 13 22 15 0 8 -5 6 -26
-11z"/>
<path d="M15404 9054 c-18 -14 -18 -15 4 -4 12 6 22 13 22 15 0 8 -5 6 -26
-11z"/>
<path d="M8580 9030 c8 -5 20 -10 25 -10 6 0 3 5 -5 10 -8 5 -19 10 -25 10 -5
0 -3 -5 5 -10z"/>
<path d="M14730 9020 c-8 -5 -10 -10 -5 -10 6 0 17 5 25 10 8 5 11 10 5 10 -5
0 -17 -5 -25 -10z"/>
<path d="M15334 9014 c-18 -14 -18 -15 4 -4 12 6 22 13 22 15 0 8 -5 6 -26
-11z"/>
<path d="M8080 8976 c0 -3 9 -10 20 -16 11 -6 20 -8 20 -6 0 3 -9 10 -20 16
-11 6 -20 8 -20 6z"/>
<path d="M15134 8904 c-18 -14 -18 -15 4 -4 12 6 22 13 22 15 0 8 -5 6 -26
-11z"/>
<path d="M8210 8906 c0 -3 14 -12 30 -21 17 -9 30 -13 30 -11 0 3 -13 12 -30
21 -16 9 -30 13 -30 11z"/>
<path d="M8470 8770 c8 -5 20 -10 25 -10 6 0 3 5 -5 10 -8 5 -19 10 -25 10 -5
0 -3 -5 5 -10z"/>
<path d="M13288 8513 c7 -3 16 -2 19 1 4 3 -2 6 -13 5 -11 0 -14 -3 -6 -6z"/>
<path d="M10138 8493 c7 -3 16 -2 19 1 4 3 -2 6 -13 5 -11 0 -14 -3 -6 -6z"/>
<path d="M13198 8493 c7 -3 16 -2 19 1 4 3 -2 6 -13 5 -11 0 -14 -3 -6 -6z"/>
<path d="M10388 8443 c7 -3 16 -2 19 1 4 3 -2 6 -13 5 -11 0 -14 -3 -6 -6z"/>
<path d="M12948 8443 c7 -3 16 -2 19 1 4 3 -2 6 -13 5 -11 0 -14 -3 -6 -6z"/>
<path d="M10448 8433 c7 -3 16 -2 19 1 4 3 -2 6 -13 5 -11 0 -14 -3 -6 -6z"/>
<path d="M12888 8433 c7 -3 16 -2 19 1 4 3 -2 6 -13 5 -11 0 -14 -3 -6 -6z"/>
<path d="M10508 8423 c7 -3 16 -2 19 1 4 3 -2 6 -13 5 -11 0 -14 -3 -6 -6z"/>
<path d="M12828 8423 c7 -3 16 -2 19 1 4 3 -2 6 -13 5 -11 0 -14 -3 -6 -6z"/>
<path d="M10568 8413 c7 -3 16 -2 19 1 4 3 -2 6 -13 5 -11 0 -14 -3 -6 -6z"/>
<path d="M12768 8413 c7 -3 16 -2 19 1 4 3 -2 6 -13 5 -11 0 -14 -3 -6 -6z"/>
<path d="M10628 8403 c6 -2 18 -2 25 0 6 3 1 5 -13 5 -14 0 -19 -2 -12 -5z"/>
<path d="M12698 8403 c6 -2 18 -2 25 0 6 3 1 5 -13 5 -14 0 -19 -2 -12 -5z"/>
<path d="M10698 8393 c6 -2 18 -2 25 0 6 3 1 5 -13 5 -14 0 -19 -2 -12 -5z"/>
<path d="M12628 8393 c6 -2 18 -2 25 0 6 3 1 5 -13 5 -14 0 -19 -2 -12 -5z"/>
<path d="M10778 8383 c6 -2 18 -2 25 0 6 3 1 5 -13 5 -14 0 -19 -2 -12 -5z"/>
<path d="M12548 8383 c6 -2 18 -2 25 0 6 3 1 5 -13 5 -14 0 -19 -2 -12 -5z"/>
<path d="M10863 8373 c9 -2 23 -2 30 0 6 3 -1 5 -18 5 -16 0 -22 -2 -12 -5z"/>
<path d="M12463 8373 c9 -2 23 -2 30 0 6 3 -1 5 -18 5 -16 0 -22 -2 -12 -5z"/>
<path d="M10953 8363 c9 -2 25 -2 35 0 9 3 1 5 -18 5 -19 0 -27 -2 -17 -5z"/>
<path d="M12373 8363 c9 -2 23 -2 30 0 6 3 -1 5 -18 5 -16 0 -22 -2 -12 -5z"/>
<path d="M11063 8353 c9 -2 25 -2 35 0 9 3 1 5 -18 5 -19 0 -27 -2 -17 -5z"/>
<path d="M12253 8353 c9 -2 25 -2 35 0 9 3 1 5 -18 5 -19 0 -27 -2 -17 -5z"/>
<path d="M11198 8343 c12 -2 32 -2 45 0 12 2 2 4 -23 4 -25 0 -35 -2 -22 -4z"/>
<path d="M12108 8343 c12 -2 32 -2 45 0 12 2 2 4 -23 4 -25 0 -35 -2 -22 -4z"/>
<path d="M11398 8333 c23 -2 59 -2 80 0 20 2 1 4 -43 4 -44 0 -61 -2 -37 -4z"/>
<path d="M11878 8333 c23 -2 59 -2 80 0 20 2 1 4 -43 4 -44 0 -61 -2 -37 -4z"/>
<path d="M10008 8233 c7 -3 16 -2 19 1 4 3 -2 6 -13 5 -11 0 -14 -3 -6 -6z"/>
<path d="M10098 8213 c7 -3 16 -2 19 1 4 3 -2 6 -13 5 -11 0 -14 -3 -6 -6z"/>
<path d="M13238 8213 c7 -3 16 -2 19 1 4 3 -2 6 -13 5 -11 0 -14 -3 -6 -6z"/>
<path d="M10298 8173 c7 -3 16 -2 19 1 4 3 -2 6 -13 5 -11 0 -14 -3 -6 -6z"/>
<path d="M13038 8173 c7 -3 16 -2 19 1 4 3 -2 6 -13 5 -11 0 -14 -3 -6 -6z"/>
<path d="M10348 8163 c7 -3 16 -2 19 1 4 3 -2 6 -13 5 -11 0 -14 -3 -6 -6z"/>
<path d="M12988 8163 c7 -3 16 -2 19 1 4 3 -2 6 -13 5 -11 0 -14 -3 -6 -6z"/>
<path d="M10408 8153 c7 -3 16 -2 19 1 4 3 -2 6 -13 5 -11 0 -14 -3 -6 -6z"/>
<path d="M12928 8153 c7 -3 16 -2 19 1 4 3 -2 6 -13 5 -11 0 -14 -3 -6 -6z"/>
<path d="M10468 8143 c7 -3 16 -2 19 1 4 3 -2 6 -13 5 -11 0 -14 -3 -6 -6z"/>
<path d="M12868 8143 c7 -3 16 -2 19 1 4 3 -2 6 -13 5 -11 0 -14 -3 -6 -6z"/>
<path d="M10528 8133 c7 -3 16 -2 19 1 4 3 -2 6 -13 5 -11 0 -14 -3 -6 -6z"/>
<path d="M12808 8133 c7 -3 16 -2 19 1 4 3 -2 6 -13 5 -11 0 -14 -3 -6 -6z"/>
<path d="M10598 8123 c7 -3 16 -2 19 1 4 3 -2 6 -13 5 -11 0 -14 -3 -6 -6z"/>
<path d="M12738 8123 c7 -3 16 -2 19 1 4 3 -2 6 -13 5 -11 0 -14 -3 -6 -6z"/>
<path d="M10668 8113 c6 -2 18 -2 25 0 6 3 1 5 -13 5 -14 0 -19 -2 -12 -5z"/>
<path d="M12658 8113 c6 -2 18 -2 25 0 6 3 1 5 -13 5 -14 0 -19 -2 -12 -5z"/>
<path d="M10743 8103 c9 -2 23 -2 30 0 6 3 -1 5 -18 5 -16 0 -22 -2 -12 -5z"/>
<path d="M12588 8103 c6 -2 18 -2 25 0 6 3 1 5 -13 5 -14 0 -19 -2 -12 -5z"/>
<path d="M10828 8093 c6 -2 18 -2 25 0 6 3 1 5 -13 5 -14 0 -19 -2 -12 -5z"/>
<path d="M12498 8093 c6 -2 18 -2 25 0 6 3 1 5 -13 5 -14 0 -19 -2 -12 -5z"/>
<path d="M10923 8083 c9 -2 23 -2 30 0 6 3 -1 5 -18 5 -16 0 -22 -2 -12 -5z"/>
<path d="M12403 8083 c9 -2 23 -2 30 0 6 3 -1 5 -18 5 -16 0 -22 -2 -12 -5z"/>
<path d="M11023 8073 c9 -2 25 -2 35 0 9 3 1 5 -18 5 -19 0 -27 -2 -17 -5z"/>
<path d="M12293 8073 c9 -2 25 -2 35 0 9 3 1 5 -18 5 -19 0 -27 -2 -17 -5z"/>
<path d="M11158 8063 c12 -2 30 -2 40 0 9 3 -1 5 -23 4 -22 0 -30 -2 -17 -4z"/>
<path d="M12158 8063 c12 -2 30 -2 40 0 9 3 -1 5 -23 4 -22 0 -30 -2 -17 -4z"/>
<path d="M11327 8053 c18 -2 50 -2 70 0 21 2 7 4 -32 4 -38 0 -55 -2 -38 -4z"/>
<path d="M11947 8053 c18 -2 50 -2 70 0 21 2 7 4 -32 4 -38 0 -55 -2 -38 -4z"/>
</g>
</svg>
